<?xml version="1.0" encoding="UTF-8" standalone="no"?>
<!-- Uploaded to: SVG Repo, www.svgrepo.com, Generator: SVG Repo Mixer Tools -->

<svg
   fill="#000000"
   height="800"
   width="800"
   version="1.1"
   id="Capa_1"
   viewBox="0 0 502.643 502.643"
   xml:space="preserve"
   sodipodi:docname="about_us_dark.svg"
   inkscape:export-filename="about_us_dark.svg"
   inkscape:export-xdpi="96"
   inkscape:export-ydpi="96"
   xmlns:inkscape="http://www.inkscape.org/namespaces/inkscape"
   xmlns:sodipodi="http://sodipodi.sourceforge.net/DTD/sodipodi-0.dtd"
   xmlns="http://www.w3.org/2000/svg"
   xmlns:svg="http://www.w3.org/2000/svg"><defs
   id="defs67" /><sodipodi:namedview
   id="namedview65"
   pagecolor="#505050"
   bordercolor="#eeeeee"
   borderopacity="1"
   inkscape:showpageshadow="0"
   inkscape:pageopacity="0"
   inkscape:pagecheckerboard="0"
   inkscape:deskcolor="#505050"
   showgrid="false" />
<g
   id="g62">
	<g
   id="g30">
		<path
   d="m 251.256,237.591 c 37.166,0 67.042,-30.048 67.042,-66.977 0.043,-37.037 -29.876,-66.999 -67.042,-66.999 -36.908,0 -66.869,29.962 -66.869,66.999 0,36.973 29.962,66.977 66.869,66.977 z"
   id="path18" />
		<path
   d="M 305.032,248.506 H 197.653 c -19.198,0 -34.923,17.602 -34.923,39.194 v 107.854 c 0,1.186 0.604,2.243 0.669,3.473 h 175.823 c 0.129,-1.229 0.626,-2.286 0.626,-3.473 V 287.7 c 0.064,-21.592 -15.661,-39.194 -34.816,-39.194 z"
   id="path20" />
		<path
   d="m 431.588,269.559 c 29.832,0 53.754,-24.008 53.754,-53.668 0,-29.66 -23.922,-53.711 -53.754,-53.711 -29.617,0 -53.582,24.051 -53.582,53.711 -0.064,29.639 23.966,53.668 53.582,53.668 z"
   id="path22" />
		<path
   d="m 474.708,278.317 h -86.046 c -15.445,0 -28.064,14.107 -28.064,31.472 v 86.413 c 0,0.928 0.453,1.812 0.518,2.826 h 141.03 c 0.065,-1.014 0.496,-1.898 0.496,-2.826 v -86.413 c 0.065,-17.365 -12.532,-31.472 -27.934,-31.472 z"
   id="path24" />
		<path
   d="m 71.011,269.559 c 29.789,0 53.733,-24.008 53.733,-53.668 0,-29.66 -23.944,-53.711 -53.733,-53.711 -29.638,0 -53.603,24.051 -53.603,53.711 0,29.66 23.965,53.668 53.603,53.668 z"
   id="path26" />
		<path
   d="M 114.109,278.317 H 27.977 C 12.576,278.317 0,292.424 0,309.789 v 86.413 c 0,0.928 0.453,1.812 0.539,2.826 h 141.03 c 0.065,-1.014 0.475,-1.898 0.475,-2.826 v -86.413 c 0.043,-17.365 -12.555,-31.472 -27.935,-31.472 z"
   id="path28" />
	</g>
	<g
   id="g32">
	</g>
	<g
   id="g34">
	</g>
	<g
   id="g36">
	</g>
	<g
   id="g38">
	</g>
	<g
   id="g40">
	</g>
	<g
   id="g42">
	</g>
	<g
   id="g44">
	</g>
	<g
   id="g46">
	</g>
	<g
   id="g48">
	</g>
	<g
   id="g50">
	</g>
	<g
   id="g52">
	</g>
	<g
   id="g54">
	</g>
	<g
   id="g56">
	</g>
	<g
   id="g58">
	</g>
	<g
   id="g60">
	</g>
</g>
<path
   style="fill:#ffffff;stroke-width:1.05597"
   d="M 0.47628054,396.1597 C 0.13531963,394.8012 0.03141075,373.29896 0.24537194,348.37693 0.59070891,308.15236 0.84483086,302.5075 2.5084467,298.10686 c 2.4300775,-6.4281 8.9923073,-13.82296 14.7324063,-16.6017 4.406456,-2.13313 6.045907,-2.20038 53.635379,-2.20038 h 49.089988 l 5.52554,2.75348 c 3.40298,1.69579 6.93316,4.59701 9.18994,7.55264 6.65601,8.7171 6.81864,10.2011 6.81864,62.21967 v 46.79912 H 71.298276 1.0962096 Z"
   id="path257" /><path
   style="fill:#ffffff;stroke-width:1.05597"
   d="m 57.133013,267.07395 c -8.753059,-2.35383 -15.810074,-6.61606 -23.435524,-14.15437 -21.020475,-20.78025 -21.017663,-52.97668 0.0065,-74.04792 10.890497,-10.91489 22.406782,-15.72388 37.654633,-15.72388 29.464938,0 52.678238,23.35436 52.479758,52.79864 -0.16661,24.71683 -15.89256,44.96767 -39.888513,51.36578 -6.829266,1.8209 -19.580848,1.70761 -26.816822,-0.23825 z"
   id="path259" /><path
   style="fill:#ffffff;stroke-width:1.05597"
   d="m 163.90695,337.64727 0.2968,-60.98243 2.80932,-5.9928 c 3.75701,-8.0144 10.3768,-14.97366 17.63272,-18.53695 l 5.95728,-2.92553 h 60.71843 60.71843 l 5.95728,2.92553 c 7.25592,3.56329 13.87571,10.52255 17.63271,18.53695 l 2.80933,5.9928 0.2968,60.98243 0.2968,60.98242 H 251.3215 163.61015 Z"
   id="path261" /><path
   style="fill:#ffffff;stroke-width:1.05597"
   d="m 240.76177,236.41025 c -6.21134,-1.19244 -16.78933,-5.03598 -22.17542,-8.05752 -8.55998,-4.80204 -21.97978,-18.82701 -26.01669,-27.18993 -13.28259,-27.51644 -8.74465,-56.25165 12.18937,-77.18568 20.64628,-20.64629 49.14895,-25.433991 75.67959,-12.71221 15.58381,7.47264 27.59151,21.08824 33.60822,38.10858 2.85488,8.07603 3.18554,10.29619 3.15235,21.1661 -0.0313,10.24904 -0.47417,13.4617 -2.8385,20.59147 -6.55591,19.7695 -22.95227,36.08098 -42.97571,42.75318 -6.75221,2.24998 -24.45481,3.71021 -30.62321,2.52601 z"
   id="path263" /><path
   style="fill:#ffffff;stroke-width:1.05597"
   d="m 361.18657,351.37491 c 0.0389,-41.85322 0.25014,-47.82243 1.84796,-52.22078 2.92822,-8.06059 7.74898,-13.92269 14.01889,-17.04711 l 5.62336,-2.80224 h 49.08999 c 47.58946,0 49.22892,0.0673 53.63537,2.20038 5.74011,2.77874 12.30234,10.1736 14.73242,16.6017 1.66361,4.40064 1.91773,10.0455 2.26306,50.27007 0.21396,24.92203 0.11006,46.42427 -0.23089,47.78277 l -0.61994,2.46999 h -70.20207 -70.20206 z"
   id="path265" /><path
   style="fill:#ffffff;stroke-width:1.05597"
   d="m 415.02805,266.00439 c -22.32211,-7.60194 -36.17443,-26.94245 -36.08305,-50.37887 0.11513,-29.52862 23.00758,-52.50785 52.26708,-52.46521 15.60062,0.0228 27.92415,5.22044 38.50657,16.24092 9.92858,10.33959 15.03699,22.91114 14.91194,36.69761 -0.32577,35.91782 -35.86063,61.39659 -69.60254,49.90555 z"
   id="path267" /></svg>
