<?xml version="1.0" encoding="UTF-8" standalone="no"?>
<svg
   width="251.32231"
   height="116.54223"
   version="1.1"
   id="svg354"
   xmlns="http://www.w3.org/2000/svg"
   xmlns:svg="http://www.w3.org/2000/svg"
   xmlns:rdf="http://www.w3.org/1999/02/22-rdf-syntax-ns#"
   xmlns:cc="http://creativecommons.org/ns#"
   xmlns:dc="http://purl.org/dc/elements/1.1/">
  <metadata
     id="metadata360">
    <rdf:RDF>
      <cc:Work
         rdf:about="">
        <dc:format>image/svg+xml</dc:format>
        <dc:type
           rdf:resource="http://purl.org/dc/dcmitype/StillImage" />
        <dc:title />
      </cc:Work>
    </rdf:RDF>
  </metadata>
  <defs
     id="defs358" />
  <g
     transform="matrix(0.72771672,0,0,0.72771672,-67.964689,-320.38776)"
     id="g352"
     style="opacity:0.25;fill:#808080">
    <g
       fill="#aa0c31"
       id="g8"
       style="fill:#808080">
      <path
         d="m 180.28565,556.25814 h -8.02856 v 14.19311 c 0,8.81714 0.64819,9.03076 8.02856,9.03076 7.31689,0 7.81494,-0.93322 7.81494,-11.18407 0,-10.96498 -0.49805,-12.0398 -7.81494,-12.0398 z M 162.9419,540.7015 c 0,-4.30176 3.57971,-5.66162 9.31519,-5.66162 v 14.76562 h 8.02856 c 13.91113,0 17.27966,2.3645 17.27966,18.49244 0,16.12853 -2.58301,17.6361 -17.27966,17.6361 -16.12854,0 -17.34375,-0.7904 -17.34375,-17.6361 z"
         id="path2"
         style="fill:#808080" />
      <path
         d="m 232.901,556.04208 h -11.03637 c -7.3114,0 -7.45605,0.71655 -7.45605,4.01367 v 20.64635 c 0,4.29871 -1.6449,4.94446 -9.67347,4.94446 v -25.59081 c 0,-7.66969 1.14135,-10.46387 16.62354,-10.46387 10.25085,0 11.54235,1.35986 11.54235,6.4502 z"
         id="path4"
         style="fill:#808080" />
      <path
         d="m 263.6554,588.80209 c 0,-2.9419 -0.71716,-4.0149 -8.02856,-4.0149 -7.31201,0 -8.02856,1.073 -8.02856,4.0149 v 1.50451 c 0,2.93884 0.71655,4.01184 8.02856,4.01184 7.3114,0 8.02856,-1.073 8.02856,-4.01184 z m 0,-29.32069 c 0,-2.93884 -0.71716,-4.01427 -8.02856,-4.01427 -7.31201,0 -8.02856,1.07543 -8.02856,4.01427 v 5.80628 c 0,2.9419 0.71655,4.0149 8.02856,4.0149 7.3114,0 8.02856,-1.073 8.02856,-4.0149 z m 9.31458,5.45105 c 0,6.80786 -2.43287,9.45924 -13.04444,10.03419 v 4.2279 c 10.61157,0.50354 13.04444,3.22571 13.04444,9.96277 v 0.79102 c 0,7.67028 -2.65138,10.46386 -17.34314,10.46386 -14.69728,0 -17.34864,-2.79358 -17.34864,-10.46386 v -0.79102 c 0,-6.73706 2.44019,-9.45923 13.04444,-9.96277 v -4.2279 c -10.60425,-0.57495 -13.04444,-3.22633 -13.04444,-10.03419 v -5.09277 c 0,-7.66968 2.65136,-10.46387 17.34864,-10.46387 14.69176,0 17.34314,2.79419 17.34314,10.46387 z"
         id="path6"
         style="fill:#808080" />
    </g>
    <g
       id="g300"
       style="fill:#808080">
      <g
         fill="#aa0c31"
         id="g154"
         style="fill:#808080">
        <path
           d="m 97.472538,466.2679 c -0.0097,0.35095 -0.871587,1.04493 -1.949462,1.52587 -1.073,0.48035 -2.028812,0.625 -2.1228,0.35523 -0.08667,-0.26916 0.800775,-0.91247 1.97265,-1.47399 1.171875,-0.5597 2.10205,-0.75257 2.099612,-0.40711 z"
           id="path10"
           style="fill:#808080" />
        <path
           d="m 104.99818,462.795 c -0.18555,0.49621 -1.19019,1.30981 -2.26808,1.78772 -1.07544,0.48034 -1.88904,0.50843 -1.79992,0.0885 0.0891,-0.41382 1.12366,-1.18163 2.29553,-1.73828 1.17493,-0.56213 1.958,-0.6311 1.77247,-0.13794 z"
           id="path12"
           style="fill:#808080" />
        <path
           d="m 112.5232,459.31966 c -0.36377,0.63843 -1.50757,1.5686 -2.58301,2.04712 -1.073,0.48278 -1.75415,0.39123 -1.48499,-0.1709 0.26734,-0.55908 1.45691,-1.45142 2.62879,-2.00805 1.17249,-0.56153 1.80542,-0.51087 1.43921,0.13183 z"
           id="path14"
           style="fill:#808080" />
        <path
           d="m 120.05066,455.84188 c -0.54138,0.78857 -1.82738,1.83593 -2.90038,2.31385 -1.07789,0.48033 -1.61194,0.27465 -1.16455,-0.43763 0.4425,-0.70679 1.78222,-1.71814 2.95653,-2.27539 1.17188,-0.55908 1.65284,-0.39123 1.1084,0.39917 z"
           id="path16"
           style="fill:#808080" />
        <path
           d="m 127.5763,452.36654 c -0.7251,0.93566 -2.146,2.09472 -3.219,2.57324 -1.07239,0.48034 -1.47461,0.16234 -0.849,-0.69458 0.62318,-0.85876 2.11549,-1.98791 3.28736,-2.54944 1.17188,-0.55725 1.50268,-0.26428 0.78064,0.67078 z"
           id="path18"
           style="fill:#808080" />
        <path
           d="m 135.1062,448.89119 c -0.90515,1.08337 -2.46581,2.36206 -3.5437,2.83997 -1.073,0.48034 -1.32995,0.0434 -0.52367,-0.96131 0.80321,-1.00098 2.43773,-2.25951 3.61266,-2.81616 1.17187,-0.55969 1.35254,-0.14527 0.45471,0.9375 z"
           id="path20"
           style="fill:#808080" />
        <path
           d="m 142.62879,445.41585 c -1.07789,1.22803 -2.78076,2.62146 -3.85376,3.09936 -1.08033,0.48035 -1.19263,-0.0739 -0.21363,-1.22009 0.98634,-1.15173 2.77589,-2.52991 3.94836,-3.08898 1.17433,-0.5542 1.19997,-0.0177 0.119,1.20971 z"
           id="path22"
           style="fill:#808080" />
        <path
           d="m 150.1593,441.93806 c -1.26099,1.37574 -3.10669,2.88575 -4.17969,3.36365 -1.07298,0.48035 -1.05468,-0.18799 0.11225,-1.48499 1.15905,-1.29882 3.10119,-2.79113 4.27307,-3.35326 1.17248,-0.55908 1.04797,0.0995 -0.20569,1.4746 z"
           id="path24"
           style="fill:#808080" />
        <path
           d="m 97.612313,468.93758 c 0.04882,0.44495 -0.635375,1.1084 -1.547862,1.45142 -0.913075,0.34058 -1.777338,0.28991 -1.909175,-0.0836 -0.137325,-0.37109 0.574337,-0.98633 1.573487,-1.40075 0.9967,-0.41444 1.832888,-0.41444 1.88355,0.033 z"
           id="path26"
           style="fill:#808080" />
        <path
           d="m 104.00635,466.40279 c -0.10681,0.57984 -0.91796,1.34766 -1.828,1.68824 -0.91004,0.34301 -1.65222,0.19042 -1.6272,-0.31555 0.0207,-0.51088 0.86731,-1.23535 1.86401,-1.64979 1.00159,-0.41686 1.70289,-0.30274 1.59119,0.2771 z"
           id="path28"
           style="fill:#808080" />
        <path
           d="m 110.40528,463.87044 c -0.26673,0.71472 -1.19447,1.58691 -2.10999,1.92994 -0.91248,0.34057 -1.52771,0.0787 -1.34765,-0.55909 0.1831,-0.64331 1.15966,-1.48254 2.15881,-1.89453 0.99914,-0.41931 1.5686,-0.19043 1.29883,0.52368 z"
           id="path30"
           style="fill:#808080" />
        <path
           d="m 116.80176,461.3387 c -0.4242,0.84656 -1.4795,1.8274 -2.38952,2.17102 -0.91309,0.33814 -1.40625,-0.0256 -1.06568,-0.80627 0.33814,-0.7727 1.45203,-1.72364 2.45118,-2.13501 0.99914,-0.41993 1.43371,-0.0794 1.00402,0.77026 z"
           id="path32"
           style="fill:#808080" />
        <path
           d="m 123.20313,458.80148 c -0.58228,0.98632 -1.76697,2.06908 -2.677,2.41271 -0.91737,0.34302 -1.27869,-0.13244 -0.78064,-1.04004 0.5011,-0.91247 1.74194,-1.9751 2.73865,-2.38952 0.99914,-0.41443 1.30371,0.0354 0.71899,1.01685 z"
           id="path34"
           style="fill:#808080" />
        <path
           d="m 129.59718,456.26913 c -0.73732,1.11632 -2.04163,2.30835 -2.95167,2.64892 -0.91492,0.34363 -1.15906,-0.23376 -0.50598,-1.27869 0.66345,-1.04736 2.0337,-2.21924 3.03283,-2.63366 0.99915,-0.41444 1.167,0.1477 0.42482,1.26343 z"
           id="path36"
           style="fill:#808080" />
        <path
           d="m 135.99854,453.73739 c -0.90515,1.25061 -2.32849,2.54455 -3.23853,2.88757 -0.91797,0.33813 -1.03516,-0.34057 -0.21911,-1.52038 0.81115,-1.1792 2.32116,-2.46339 3.32031,-2.87782 1.00464,-0.41442 1.03515,0.25452 0.13733,1.51063 z"
           id="path38"
           style="fill:#808080" />
        <path
           d="m 142.39746,451.2026 c -1.06017,1.38549 -2.60558,2.78625 -3.52356,3.12683 -0.91002,0.34301 -0.91002,-0.44251 0.061,-1.75659 0.97413,-1.3147 2.62146,-2.70996 3.62061,-3.12439 0.99609,-0.41687 0.89722,0.37109 -0.15808,1.75415 z"
           id="path40"
           style="fill:#808080" />
        <path
           d="m 98.148814,472.22981 c 0.112299,0.5365 -0.399175,1.167 -1.171875,1.38794 -0.767826,0.21851 -1.558238,-0.01 -1.749276,-0.48034 -0.18555,-0.47058 0.361325,-1.05773 1.20545,-1.33972 0.84655,-0.28504 1.604,-0.10188 1.715701,0.43212 z"
           id="path42"
           style="fill:#808080" />
        <path
           d="m 103.55164,470.54951 c -0.0256,0.65309 -0.6488,1.38002 -1.42395,1.59852 -0.76538,0.21912 -1.44654,-0.10138 -1.49475,-0.69092 -0.0482,-0.59021 0.61524,-1.2793 1.45935,-1.56372 0.84411,-0.28443 1.48437,0 1.45935,0.65612 z"
           id="path44"
           style="fill:#808080" />
        <path
           d="m 108.95386,468.86616 c -0.16785,0.7782 -0.89782,1.59425 -1.66503,1.81275 -0.77333,0.2185 -1.34523,-0.19347 -1.25367,-0.90271 0.0891,-0.71166 0.86975,-1.50207 1.71325,-1.78466 0.84718,-0.28443 1.37085,0.0995 1.20545,0.87462 z"
           id="path46"
           style="fill:#808080" />
        <path
           d="m 114.35609,467.18587 c -0.30519,0.89478 -1.14625,1.80787 -1.91956,2.0288 -0.77027,0.21852 -1.23047,-0.28991 -0.99915,-1.12121 0.22888,-0.82886 1.12915,-1.72119 1.97022,-2.00622 0.84168,-0.27954 1.25366,0.20386 0.94849,1.09863 z"
           id="path48"
           style="fill:#808080" />
        <path
           d="m 119.7583,465.50252 c -0.44982,1.01745 -1.39831,2.02393 -2.16309,2.24243 -0.77575,0.22156 -1.13158,-0.38086 -0.755,-1.33179 0.3656,-0.94848 1.38307,-1.9397 2.22657,-2.22472 0.84656,-0.28748 1.13403,0.29967 0.69152,1.31409 z"
           id="path50"
           style="fill:#808080" />
        <path
           d="m 125.16114,463.82527 c -0.58473,1.13343 -1.64734,2.2345 -2.41273,2.453 -0.76782,0.21852 -1.01683,-0.4779 -0.51391,-1.54601 0.51391,-1.06995 1.64734,-2.16308 2.48901,-2.44507 0.849,-0.28504 1.01685,0.40161 0.43763,1.53808 z"
           id="path52"
           style="fill:#808080" />
        <path
           d="m 130.55848,462.14193 c -0.7251,1.25855 -1.89148,2.44812 -2.6593,2.66723 -0.77332,0.22095 -0.91065,-0.56762 -0.26184,-1.75965 0.65062,-1.18957 1.90367,-2.3822 2.74535,-2.66662 0.84167,-0.28748 0.89722,0.50293 0.17579,1.75904 z"
           id="path54"
           style="fill:#808080" />
        <path
           d="m 135.9607,460.46163 c -0.86182,1.37512 -2.14051,2.66418 -2.90832,2.88268 -0.76539,0.21608 -0.79835,-0.66588 -0.0129,-1.97508 0.78796,-1.30983 2.15821,-2.6062 3.00233,-2.88575 0.849,-0.28687 0.78552,0.60242 -0.0811,1.97815 z"
           id="path56"
           style="fill:#808080" />
        <path
           d="m 99.135138,476.09151 c 0.180663,0.61524 -0.172737,1.22559 -0.816037,1.33484 -0.640262,0.11162 -1.380013,-0.27221 -1.62965,-0.8313 -0.251463,-0.55969 0.137338,-1.12671 0.846562,-1.29639 0.712276,-0.16845 1.416013,0.17762 1.599126,0.79285 z"
           id="path58"
           style="fill:#808080" />
        <path
           d="m 103.66089,475.16621 c 0.058,0.71962 -0.3894,1.40809 -1.0321,1.51795 -0.64331,0.11163 -1.28663,-0.35095 -1.41114,-1.01685 -0.13,-0.66406 0.36073,-1.32201 1.073,-1.49047 0.70679,-0.1648 1.31165,0.26734 1.37024,0.98937 z"
           id="path60"
           style="fill:#808080" />
        <path
           d="m 108.18604,474.23544 c -0.061,0.82641 -0.60791,1.59424 -1.24816,1.70592 -0.64088,0.11175 -1.19508,-0.43701 -1.19752,-1.20238 -0.002,-0.77027 0.5896,-1.51795 1.29883,-1.68274 0.70922,-0.16785 1.21032,0.35582 1.14685,1.1792 z"
           id="path62"
           style="fill:#808080" />
        <path
           d="m 112.70874,473.31014 c -0.18066,0.9253 -0.82398,1.77735 -1.46423,1.88903 -0.64331,0.10925 -1.09863,-0.51575 -0.97656,-1.39098 0.11719,-0.86914 0.8136,-1.70533 1.52526,-1.87318 0.70679,-0.17029 1.10352,0.44495 0.91553,1.37513 z"
           id="path64"
           style="fill:#808080" />
        <path
           d="m 117.23939,472.37996 c -0.30518,1.0321 -1.04249,1.96534 -1.68824,2.07398 -0.64331,0.11225 -1.00159,-0.59449 -0.75806,-1.57593 0.23926,-0.97107 1.04249,-1.89941 1.74684,-2.06665 0.71166,-0.16541 1.00402,0.53345 0.69946,1.5686 z"
           id="path66"
           style="fill:#808080" />
        <path
           d="m 121.76698,471.44918 c -0.42969,1.13891 -1.26588,2.15087 -1.90919,2.26257 -0.64086,0.11225 -0.90271,-0.67627 -0.54138,-1.75904 0.36072,-1.08276 1.26587,-2.09227 1.97754,-2.26257 0.71166,-0.1654 0.89783,0.62561 0.47303,1.75904 z"
           id="path68"
           style="fill:#808080" />
        <path
           d="m 126.28968,470.52144 c -0.5542,1.24329 -1.48499,2.33642 -2.12037,2.44568 -0.64331,0.11175 -0.81115,-0.75806 -0.32531,-1.94458 0.48828,-1.1853 1.49231,-2.28576 2.20398,-2.45361 0.70922,-0.16541 0.79101,0.70922 0.2417,1.95251 z"
           id="path70"
           style="fill:#808080" />
        <path
           d="m 130.81238,469.5931 c -0.67383,1.34521 -1.69555,2.52197 -2.33887,2.63184 -0.64331,0.10925 -0.71167,-0.83924 -0.10675,-2.13074 0.6128,-1.28906 1.72364,-2.48109 2.42798,-2.64649 0.71167,-0.16785 0.69154,0.79834 0.0178,2.14539 z"
           id="path72"
           style="fill:#808080" />
        <path
           d="m 100.61219,480.472 c 0.26245,0.68848 0.0586,1.27869 -0.47241,1.29884 -0.531617,0.0231 -1.238404,-0.5005 -1.558841,-1.1438 -0.314938,-0.64331 -0.0763,-1.19751 0.508424,-1.26344 0.595088,-0.069 1.264037,0.42176 1.522827,1.1084 z"
           id="path74"
           style="fill:#808080" />
        <path
           d="m 104.37256,480.18698 c 0.15259,0.77331 -0.13245,1.43371 -0.6659,1.45202 -0.52917,0.0201 -1.15417,-0.56457 -1.36535,-1.29639 -0.21362,-0.72998 0.11658,-1.36291 0.70679,-1.42945 0.5896,-0.0635 1.16944,0.49867 1.32446,1.27382 z"
           id="path76"
           style="fill:#808080" />
        <path
           d="m 108.12989,479.90255 c 0.0433,0.86181 -0.32533,1.58874 -0.85389,1.60644 -0.5365,0.0201 -1.073,-0.63538 -1.1798,-1.45141 -0.0989,-0.82093 0.31799,-1.52283 0.90759,-1.59119 0.5896,-0.0665 1.08032,0.57434 1.1261,1.43616 z"
           id="path78"
           style="fill:#808080" />
        <path
           d="m 111.88476,479.61751 c -0.061,0.95093 -0.51086,1.73889 -1.04491,1.76209 -0.53345,0.0178 -0.98877,-0.70679 -0.98327,-1.60706 0.003,-0.90454 0.5133,-1.68823 1.10046,-1.75415 0.59265,-0.0684 0.99181,0.64575 0.92772,1.59912 z"
           id="path80"
           style="fill:#808080" />
        <path
           d="m 115.6427,479.33309 c -0.17029,1.03455 -0.70679,1.89392 -1.23596,1.91162 -0.531,0.0233 -0.90515,-0.76782 -0.79284,-1.75903 0.11169,-0.99183 0.71166,-1.8457 1.29638,-1.91223 0.5951,-0.0684 0.90027,0.7196 0.73242,1.75964 z"
           id="path82"
           style="fill:#808080" />
        <path
           d="m 119.40246,479.04805 c -0.27465,1.12366 -0.89721,2.04651 -1.42882,2.0697 -0.52856,0.0177 -0.82336,-0.83923 -0.60486,-1.91955 0.21851,-1.07544 0.91247,-2.00866 1.4972,-2.07459 0.59265,-0.0659 0.81115,0.7959 0.53648,1.92444 z"
           id="path84"
           style="fill:#808080" />
        <path
           d="m 123.15735,478.75814 c -0.38635,1.21276 -1.08276,2.20702 -1.61437,2.22472 -0.5365,0.0226 -0.74219,-0.9027 -0.41688,-2.0697 0.33081,-1.16393 1.1084,-2.16796 1.69556,-2.23693 0.59265,-0.0659 0.71717,0.86975 0.33569,2.08191 z"
           id="path86"
           style="fill:#808080" />
        <path
           d="m 126.92016,478.47371 c -0.49316,1.30433 -1.27867,2.35901 -1.81517,2.37672 -0.52858,0.0232 -0.65614,-0.96803 -0.21851,-2.22169 0.43212,-1.2561 1.30432,-2.33398 1.89148,-2.40234 0.59204,-0.0659 0.63049,0.94849 0.1422,2.24731 z"
           id="path88"
           style="fill:#808080" />
        <path
           d="m 102.63368,485.31209 c 0.34301,0.75562 0.2948,1.33483 -0.14222,1.2793 -0.43518,-0.0537 -1.12915,-0.69153 -1.52283,-1.41114 -0.39673,-0.71716 -0.30029,-1.26586 0.18006,-1.2506 0.49072,0.0178 1.14196,0.62805 1.48499,1.38244 z"
           id="path90"
           style="fill:#808080" />
        <path
           d="m 105.71473,485.55135 c 0.25451,0.82154 0.13,1.45446 -0.30518,1.40075 -0.43701,-0.0555 -1.05712,-0.74462 -1.35986,-1.53015 -0.3003,-0.78612 -0.12451,-1.39831 0.35827,-1.37817 0.48828,0.0152 1.05774,0.68665 1.30677,1.50757 z"
           id="path92"
           style="fill:#808080" />
        <path
           d="m 108.80371,485.79061 c 0.15503,0.89233 -0.0433,1.57348 -0.4779,1.51733 -0.43213,-0.0482 -0.98145,-0.7959 -1.18713,-1.64734 -0.21363,-0.85633 0.0433,-1.52526 0.531,-1.51001 0.48585,0.0177 0.97901,0.75012 1.13403,1.64002 z"
           id="path94"
           style="fill:#808080" />
        <path
           d="m 111.88476,486.02681 c 0.0665,0.9613 -0.20568,1.69557 -0.64025,1.64247 -0.43762,-0.0513 -0.9076,-0.84657 -1.02478,-1.76942 -0.11169,-0.9259 0.21851,-1.65527 0.70435,-1.63513 0.48827,0.0159 0.90271,0.80383 0.96068,1.76208 z"
           id="path96"
           style="fill:#808080" />
        <path
           d="m 114.97376,486.26546 c -0.0305,1.03028 -0.37353,1.81519 -0.81055,1.76453 -0.43762,-0.0531 -0.8368,-0.89967 -0.8545,-1.89148 -0.0201,-0.99121 0.38637,-1.78467 0.8722,-1.76941 0.48768,0.0177 0.82337,0.86975 0.79285,1.89636 z"
           id="path98"
           style="fill:#808080" />
        <path
           d="m 118.05543,486.50716 c -0.12513,1.09863 -0.542,1.93482 -0.97413,1.8811 -0.43457,-0.0531 -0.76477,-0.94787 -0.69152,-2.01294 0.0739,-1.06018 0.56213,-1.91223 1.0553,-1.89697 0.48033,0.0208 0.73486,0.93079 0.61035,2.02881 z"
           id="path100"
           style="fill:#808080" />
        <path
           d="m 121.1438,486.74397 c -0.2185,1.16699 -0.71166,2.05933 -1.14867,2.00318 -0.43519,-0.0537 -0.68665,-1.00159 -0.52369,-2.13074 0.16785,-1.13342 0.74219,-2.04406 1.22254,-2.02331 0.48827,0.0152 0.66893,0.98389 0.44982,2.15087 z"
           id="path102"
           style="fill:#808080" />
        <path
           d="m 124.22546,486.98506 c -0.31311,1.23353 -0.87218,2.17652 -1.3092,2.1228 -0.43762,-0.0555 -0.61828,-1.05468 -0.35583,-2.25218 0.26123,-1.19995 0.91003,-2.17103 1.39771,-2.15577 0.48584,0.0178 0.57982,1.0498 0.26732,2.28515 z"
           id="path104"
           style="fill:#808080" />
        <path
           d="m 105.2417,490.55501 c 0.43763,0.81055 0.53406,1.39283 0.18066,1.28602 -0.3479,-0.10675 -1.04491,-0.84657 -1.52771,-1.62964 -0.4779,-0.78309 -0.52367,-1.33729 -0.13244,-1.2555 0.39429,0.0811 1.05042,0.78796 1.47949,1.59912 z"
           id="path106"
           style="fill:#808080" />
        <path
           d="m 107.74109,491.18734 c 0.35095,0.86181 0.38391,1.47705 0.0281,1.37085 -0.35095,-0.10988 -0.979,-0.88013 -1.38061,-1.71143 -0.39124,-0.83374 -0.37354,-1.43372 0.0202,-1.35253 0.39673,0.0817 0.979,0.83678 1.33239,1.69311 z"
           id="path108"
           style="fill:#808080" />
        <path
           d="m 110.23499,491.82333 c 0.27221,0.91002 0.23376,1.56127 -0.11414,1.45141 -0.35095,-0.10375 -0.91796,-0.91248 -1.23596,-1.79444 -0.31494,-0.88013 -0.22339,-1.52344 0.17579,-1.44165 0.39123,0.0762 0.90515,0.87952 1.17431,1.78467 z"
           id="path110"
           style="fill:#808080" />
        <path
           d="m 112.72889,492.4587 c 0.18799,0.95886 0.0867,1.64245 -0.26185,1.53564 -0.35095,-0.10688 -0.85631,-0.94788 -1.0852,-1.87867 -0.23133,-0.93077 -0.0738,-1.61926 0.32287,-1.53807 0.39368,0.0811 0.83619,0.92529 1.02418,1.8811 z"
           id="path112"
           style="fill:#808080" />
        <path
           d="m 115.22278,493.09164 c 0.10675,1.00707 -0.0555,1.72362 -0.40893,1.61986 -0.34851,-0.10987 -0.78796,-0.98388 -0.93811,-1.96289 -0.15015,-0.97656 0.0812,-1.70837 0.47546,-1.6272 0.39124,0.0762 0.76538,0.96619 0.87158,1.97023 z"
           id="path114"
           style="fill:#808080" />
        <path
           d="m 117.71973,493.72763 c 0.0226,1.05468 -0.2063,1.8103 -0.55664,1.70043 -0.34851,-0.10675 -0.72205,-1.01685 -0.79101,-2.04346 -0.0684,-1.03027 0.22887,-1.80541 0.62316,-1.72424 0.39367,0.0811 0.69886,1.00952 0.72449,2.06727 z"
           id="path116"
           style="fill:#808080" />
        <path
           d="m 120.21363,494.36055 c -0.061,1.10596 -0.35584,1.89392 -0.70435,1.78467 -0.3485,-0.10187 -0.661,-1.04981 -0.6433,-2.12829 0.0128,-1.07544 0.38146,-1.89881 0.78063,-1.81763 0.39429,0.0817 0.62317,1.05774 0.56702,2.16125 z"
           id="path118"
           style="fill:#808080" />
        <path
           d="m 122.70996,494.99837 c -0.14465,1.14685 -0.49805,1.97266 -0.849,1.86889 -0.35583,-0.10687 -0.59997,-1.09069 -0.49805,-2.21191 0.094,-1.1261 0.52858,-1.9934 0.92774,-1.9165 0.39429,0.0811 0.55664,1.10535 0.41931,2.25952 z"
           id="path120"
           style="fill:#808080" />
        <path
           d="m 108.49121,496.14766 c 0.5365,0.85938 0.77515,1.45447 0.49317,1.31409 -0.27465,-0.13916 -0.98389,-0.95031 -1.55884,-1.79444 -0.57434,-0.84167 -0.76233,-1.40868 -0.44739,-1.28661 0.31555,0.1245 0.97656,0.91003 1.51306,1.76696 z"
           id="path122"
           style="fill:#808080" />
        <path
           d="m 110.46875,497.04 c 0.46265,0.88745 0.64088,1.49475 0.36378,1.35498 -0.27467,-0.13733 -0.93079,-0.96374 -1.42884,-1.83777 -0.50598,-0.86975 -0.63049,-1.46728 -0.3125,-1.33728 0.3125,0.12212 0.91736,0.93567 1.37756,1.82007 z"
           id="path124"
           style="fill:#808080" />
        <path
           d="m 112.44203,497.92989 c 0.39122,0.91247 0.5133,1.54052 0.2362,1.4032 -0.27467,-0.13978 -0.87464,-0.98633 -1.30433,-1.88355 -0.42419,-0.89783 -0.49071,-1.52038 -0.17516,-1.39831 0.31494,0.1245 0.85632,0.96862 1.24329,1.87866 z"
           id="path126"
           style="fill:#808080" />
        <path
           d="m 114.41956,498.82222 c 0.3131,0.94055 0.37903,1.58387 0.10437,1.44409 -0.27465,-0.13732 -0.81604,-0.99914 -1.17188,-1.92443 -0.35584,-0.92774 -0.35584,-1.57898 -0.0433,-1.45447 0.31495,0.1245 0.79042,0.99181 1.11085,1.93481 z"
           id="path128"
           style="fill:#808080" />
        <path
           d="m 116.39526,499.71456 c 0.23865,0.96863 0.25147,1.62719 -0.0232,1.48987 -0.28198,-0.13978 -0.76232,-1.01929 -1.04248,-1.97022 -0.28687,-0.95581 -0.22888,-1.63452 0.0866,-1.51001 0.31555,0.1245 0.7373,1.02172 0.979,1.99036 z"
           id="path130"
           style="fill:#808080" />
        <path
           d="m 118.36793,500.60689 c 0.17516,0.99426 0.1245,1.67053 -0.15504,1.53321 -0.27465,-0.14221 -0.69946,-1.03455 -0.91248,-2.01355 -0.20628,-0.98389 -0.0946,-1.68824 0.22584,-1.56616 0.31799,0.1245 0.67383,1.0498 0.84168,2.0465 z"
           id="path132"
           style="fill:#808080" />
        <path
           d="m 120.34608,501.49434 c 0.0989,1.02417 -0.0129,1.72364 -0.28748,1.57837 -0.27466,-0.13732 -0.64331,-1.0498 -0.78064,-2.05871 -0.13733,-1.00709 0.0434,-1.74195 0.35583,-1.615 0.318,0.12212 0.6128,1.073 0.71229,2.09534 z"
           id="path134"
           style="fill:#808080" />
        <path
           d="m 122.32361,502.38668 c 0.0233,1.05225 -0.14465,1.76147 -0.41931,1.62415 -0.27466,-0.13978 -0.58471,-1.06752 -0.65369,-2.1045 -0.0635,-1.03759 0.18067,-1.79504 0.49867,-1.67603 0.3125,0.12513 0.5487,1.10596 0.57433,2.15638 z"
           id="path136"
           style="fill:#808080" />
        <path
           d="m 112.42676,502.03816 c 0.64027,0.89723 1.01929,1.51245 0.81055,1.36537 -0.21057,-0.15015 -0.95337,-1.00953 -1.62965,-1.90187 -0.67626,-0.89965 -1.00157,-1.49475 -0.755,-1.34703 0.24414,0.14465 0.93323,0.98388 1.5741,1.88353 z"
           id="path138"
           style="fill:#808080" />
        <path
           d="m 113.93921,503.03975 c 0.57984,0.90028 0.90027,1.5155 0.69398,1.36536 -0.20814,-0.15015 -0.89966,-1.00708 -1.51246,-1.90918 -0.61035,-0.90027 -0.87952,-1.50268 -0.63598,-1.35742 0.24414,0.14953 0.88013,0.99609 1.45446,1.90124 z"
           id="path140"
           style="fill:#808080" />
        <path
           d="m 115.45471,504.03646 c 0.51087,0.90759 0.78553,1.52038 0.57434,1.37024 -0.20629,-0.15015 -0.84899,-1.00647 -1.39342,-1.90919 -0.54627,-0.90758 -0.75989,-1.52038 -0.51575,-1.37267 0.24108,0.14709 0.82336,1.00402 1.33483,1.91162 z"
           id="path142"
           style="fill:#808080" />
        <path
           d="m 116.96961,505.0356 c 0.4425,0.91248 0.66894,1.52528 0.46264,1.37269 -0.21362,-0.1471 -0.79834,-1.00404 -1.27869,-1.91163 -0.48827,-0.91308 -0.6433,-1.5332 -0.39916,-1.38306 0.2417,0.14528 0.76783,1.01196 1.21521,1.922 z"
           id="path144"
           style="fill:#808080" />
        <path
           d="m 118.47961,506.03962 c 0.38148,0.91309 0.5542,1.52039 0.35097,1.37331 -0.21363,-0.15016 -0.75013,-1.0022 -1.167,-1.91712 -0.41199,-0.91553 -0.5188,-1.54602 -0.27467,-1.39832 0.2417,0.14771 0.70924,1.02174 1.0907,1.94214 z"
           id="path146"
           style="fill:#808080" />
        <path
           d="m 119.99513,507.03389 c 0.3125,0.9253 0.43701,1.52527 0.22582,1.38062 -0.20569,-0.15015 -0.69397,-1.00158 -1.04187,-1.91956 -0.3485,-0.92041 -0.4071,-1.55884 -0.15503,-1.40869 0.24109,0.14283 0.65308,1.02723 0.97108,1.94763 z"
           id="path148"
           style="fill:#808080" />
        <path
           d="m 121.50513,508.03548 c 0.25696,0.92773 0.32532,1.52771 0.11175,1.38062 -0.20569,-0.15015 -0.64088,-0.99915 -0.92774,-1.91956 -0.28198,-0.92529 -0.28198,-1.57654 -0.0385,-1.42883 0.24964,0.1477 0.60546,1.04248 0.85449,1.96777 z"
           id="path150"
           style="fill:#808080" />
        <path
           d="m 123.02796,509.03463 c 0.18067,0.93322 0.19837,1.53565 -0.007,1.38549 -0.21057,-0.15015 -0.59205,-0.99914 -0.81603,-1.92443 -0.21852,-0.93018 -0.16237,-1.5918 0.0866,-1.44165 0.23926,0.14526 0.54931,1.0498 0.73731,1.98059 z"
           id="path152"
           style="fill:#808080" />
      </g>
      <path
         d="m 133.75916,527.90609 c -0.2063,-0.28443 -1.31226,-0.36378 -2.47131,-0.14526 -1.15417,0.224 -2.02087,0.65368 -1.9397,0.9259 0.0739,0.26916 1.17188,0.29236 2.45056,0.0836 1.28662,-0.21361 2.16614,-0.58715 1.96045,-0.86425 z"
         fill="#94989a"
         id="path156"
         style="fill:#808080" />
      <path
         d="m 141.91711,526.45467 c -0.42968,-0.29786 -1.72118,-0.39185 -2.87536,-0.1709 -1.15906,0.22155 -1.8457,0.66162 -1.53565,0.95337 0.31311,0.29052 1.60463,0.32592 2.88331,0.11962 1.27868,-0.21362 1.96533,-0.59999 1.5277,-0.9021 z"
         fill="#94989a"
         id="path158"
         style="fill:#808080" />
      <path
         d="m 150.08301,525.00814 c -0.6659,-0.318 -2.13317,-0.42725 -3.29223,-0.2063 -1.15418,0.22095 -1.66017,0.68115 -1.11634,0.98877 0.542,0.30762 2.02149,0.35889 3.30017,0.15014 1.28358,-0.21362 1.77674,-0.61279 1.1084,-0.93261 z"
         fill="#94989a"
         id="path160"
         style="fill:#808080" />
      <path
         d="m 158.24403,523.5616 c -0.89234,-0.33814 -2.54518,-0.4602 -3.69935,-0.2417 -1.15905,0.22095 -1.47949,0.69641 -0.71167,1.02418 0.77515,0.32592 2.453,0.39185 3.7323,0.1831 1.28357,-0.21607 1.57593,-0.62744 0.67872,-0.96558 z"
         fill="#94989a"
         id="path162"
         style="fill:#808080" />
      <path
         d="m 166.40991,522.11751 c -1.12915,-0.35888 -2.96203,-0.49561 -4.11621,-0.27466 -1.15417,0.22095 -1.29944,0.70924 -0.2948,1.05225 1.00404,0.34851 2.86988,0.4248 4.1565,0.21363 1.27869,-0.20874 1.38305,-0.64088 0.25451,-0.99122 z"
         fill="#94989a"
         id="path164"
         style="fill:#808080" />
      <path
         d="m 174.57581,520.66549 c -1.36047,-0.37354 -3.36853,-0.52857 -4.5282,-0.30763 -1.1615,0.224 -1.11572,0.72694 0.11163,1.0907 1.23596,0.36622 3.30017,0.45533 4.57886,0.24659 1.27869,-0.21119 1.19263,-0.65552 -0.16235,-1.02966 z"
         fill="#94989a"
         id="path166"
         style="fill:#808080" />
      <path
         d="m 182.73621,519.21651 c -1.59118,-0.39124 -3.78052,-0.55909 -4.93957,-0.33814 -1.15418,0.21852 -0.93568,0.73976 0.52856,1.12367 1.46729,0.37902 3.71948,0.48584 5.00366,0.2771 1.27869,-0.21608 0.99122,-0.66834 -0.59265,-1.06263 z"
         fill="#94989a"
         id="path168"
         style="fill:#808080" />
      <path
         d="m 190.9021,517.77486 c -1.82006,-0.41199 -4.19739,-0.59997 -5.35156,-0.37842 -1.1615,0.22095 -0.755,0.75501 0.93567,1.15662 1.69555,0.40161 4.14917,0.52124 5.42785,0.31005 1.28358,-0.21361 0.81117,-0.68115 -1.01196,-1.08825 z"
         fill="#94989a"
         id="path170"
         style="fill:#808080" />
      <path
         d="m 132.34803,525.63558 c -0.21119,-0.39673 -1.15418,-0.54627 -2.09473,-0.30762 -0.94849,0.23925 -1.62964,0.77575 -1.52282,1.15967 0.0989,0.38391 1.03453,0.48035 2.08983,0.25146 1.06019,-0.23131 1.74622,-0.71166 1.52772,-1.10351 z"
         fill="#94989a"
         id="path172"
         style="fill:#808080" />
      <path
         d="m 139.04969,524.05721 c -0.41993,-0.41443 -1.52283,-0.57984 -2.47131,-0.34057 -0.943,0.24413 -1.45935,0.79284 -1.15418,1.19445 0.3125,0.40222 1.4209,0.5188 2.47619,0.28747 1.0553,-0.23132 1.57105,-0.72449 1.1493,-1.14135 z"
         fill="#94989a"
         id="path174"
         style="fill:#808080" />
      <path
         d="m 145.74829,522.48068 c -0.63049,-0.43214 -1.89635,-0.61768 -2.83691,-0.37354 -0.9436,0.23865 -1.29944,0.80322 -0.78064,1.22559 0.51086,0.42663 1.78955,0.55115 2.84974,0.32531 1.0553,-0.23133 1.39098,-0.73975 0.76781,-1.17736 z"
         fill="#94989a"
         id="path176"
         style="fill:#808080" />
      <path
         d="m 152.44203,520.90719 c -0.82825,-0.45776 -2.25709,-0.65613 -3.20069,-0.41199 -0.94788,0.23925 -1.14136,0.81909 -0.41688,1.26343 0.72205,0.4425 2.17652,0.58716 3.2312,0.35888 1.0553,-0.23193 1.22315,-0.75806 0.38637,-1.21032 z"
         fill="#94989a"
         id="path178"
         style="fill:#808080" />
      <path
         d="m 159.14124,519.33065 c -1.04004,-0.47486 -2.62634,-0.68848 -3.57421,-0.44984 -0.94117,0.2417 -0.97169,0.83924 -0.0434,1.30189 0.93018,0.46264 2.55738,0.62255 3.61266,0.39429 1.05469,-0.2295 1.04737,-0.77333 0.005,-1.24634 z"
         fill="#94989a"
         id="path180"
         style="fill:#808080" />
      <path
         d="m 165.8429,517.75471 c -1.24817,-0.4956 -2.99987,-0.72692 -3.94349,-0.48584 -0.94787,0.23927 -0.81053,0.8545 0.32533,1.33729 1.12915,0.48034 2.93151,0.65856 3.98681,0.42724 1.06018,-0.22888 0.87159,-0.78796 -0.36865,-1.27869 z"
         fill="#94989a"
         id="path182"
         style="fill:#808080" />
      <path
         d="m 172.53663,516.17879 c -1.45448,-0.51391 -3.36365,-0.7605 -4.31153,-0.5188 -0.94055,0.23865 -0.6488,0.86915 0.69398,1.3678 1.33971,0.50599 3.31786,0.69641 4.37255,0.46509 1.0553,-0.22644 0.70435,-0.79834 -0.755,-1.31409 z"
         fill="#94989a"
         id="path184"
         style="fill:#808080" />
      <path
         d="m 179.23584,514.60225 c -1.65771,-0.53161 -3.72985,-0.7959 -4.67285,-0.5542 -0.94604,0.2417 -0.49073,0.8844 1.05469,1.40564 1.54846,0.52369 3.69446,0.72999 4.75403,0.5011 1.05529,-0.22888 0.53162,-0.81848 -1.13587,-1.35254 z"
         fill="#94989a"
         id="path186"
         style="fill:#808080" />
      <path
         d="m 130.90638,522.62044 c -0.21119,-0.49804 -0.99122,-0.72449 -1.75172,-0.46264 -0.755,0.25695 -1.27318,0.89478 -1.1615,1.38794 0.119,0.49621 0.89967,0.66406 1.75904,0.41504 0.85449,-0.24964 1.37268,-0.83435 1.15418,-1.34034 z"
         fill="#94989a"
         id="path188"
         style="fill:#808080" />
      <path
         d="m 136.30371,520.91756 c -0.39367,-0.52368 -1.32202,-0.76294 -2.07702,-0.50353 -0.755,0.26183 -1.13648,0.91247 -0.83619,1.42395 0.29969,0.51573 1.23536,0.69885 2.08985,0.44982 0.85388,-0.24964 1.22254,-0.849 0.82336,-1.37024 z"
         fill="#94989a"
         id="path190"
         style="fill:#808080" />
      <path
         d="m 141.69373,519.21163 c -0.57495,-0.54443 -1.64002,-0.7959 -2.40295,-0.5365 -0.755,0.2594 -0.98389,0.92773 -0.50599,1.4563 0.48096,0.53406 1.5741,0.73731 2.42799,0.48339 0.85448,-0.24902 1.06017,-0.86181 0.48095,-1.4032 z"
         fill="#94989a"
         id="path192"
         style="fill:#808080" />
      <path
         d="m 147.09046,517.5057 c -0.76233,-0.56214 -1.97266,-0.82886 -2.72766,-0.56946 -0.75501,0.2594 -0.84656,0.94055 -0.18555,1.48986 0.66589,0.54871 1.90674,0.77027 2.76368,0.51819 0.85387,-0.24902 0.91491,-0.87708 0.14953,-1.43859 z"
         fill="#94989a"
         id="path194"
         style="fill:#808080" />
      <path
         d="m 152.48535,515.79976 c -0.94055,-0.57984 -2.30041,-0.86426 -3.05541,-0.60486 -0.75501,0.26124 -0.70679,0.95825 0.13732,1.52528 0.849,0.56701 2.2522,0.80566 3.10669,0.55115 0.85389,-0.24659 0.75501,-0.89478 -0.1886,-1.47157 z"
         fill="#94989a"
         id="path196"
         style="fill:#808080" />
      <path
         d="m 157.88269,514.09383 c -1.12854,-0.59998 -2.62634,-0.89478 -3.38866,-0.63599 -0.75502,0.25696 -0.55909,0.96925 0.46752,1.5564 1.02966,0.5896 2.58301,0.83862 3.44483,0.5896 0.85448,-0.24903 0.59753,-0.91553 -0.52369,-1.51001 z"
         fill="#94989a"
         id="path198"
         style="fill:#808080" />
      <path
         d="m 163.27271,512.3879 c -1.30921,-0.61768 -2.95166,-0.93079 -3.70667,-0.67139 -0.75561,0.2594 -0.4248,0.98694 0.79285,1.5918 1.21032,0.6073 2.9187,0.87219 3.77564,0.62255 0.85387,-0.24902 0.45471,-0.92528 -0.86182,-1.54296 z"
         fill="#94989a"
         id="path200"
         style="fill:#808080" />
      <path
         d="m 168.67005,510.68196 c -1.4978,-0.63842 -3.28247,-0.96069 -4.03747,-0.70678 -0.75502,0.2594 -0.27467,1.00158 1.12365,1.62963 1.391,0.62257 3.25683,0.89967 4.11072,0.65308 0.85449,-0.24901 0.29785,-0.93994 -1.1969,-1.57593 z"
         fill="#94989a"
         id="path202"
         style="fill:#808080" />
      <path
         d="m 129.5105,518.89119 c -0.2008,-0.61279 -0.8435,-0.90759 -1.42822,-0.63293 -0.59509,0.2771 -0.98144,1.01684 -0.86243,1.61438 0.11225,0.60241 0.75561,0.84656 1.43433,0.58227 0.67382,-0.26977 1.06262,-0.95642 0.85632,-1.56372 z"
         fill="#94989a"
         id="path204"
         style="fill:#808080" />
      <path
         d="m 133.75916,517.06564 c -0.36377,-0.62256 -1.12366,-0.93324 -1.71631,-0.65858 -0.59204,0.27954 -0.85449,1.02478 -0.57984,1.64245 0.27467,0.61769 1.05287,0.87953 1.73402,0.61036 0.67871,-0.26672 0.92285,-0.96863 0.56213,-1.59423 z"
         fill="#94989a"
         id="path206"
         style="fill:#808080" />
      <path
         d="m 138.0072,515.24556 c -0.53161,-0.64575 -1.41601,-0.9613 -2.00317,-0.68665 -0.59265,0.27467 -0.7373,1.0376 -0.30029,1.67054 0.43762,0.63049 1.35497,0.90515 2.03369,0.63781 0.67383,-0.26916 0.78552,-0.98388 0.26977,-1.6217 z"
         fill="#94989a"
         id="path208"
         style="fill:#808080" />
      <path
         d="m 142.24244,513.42 c -0.68115,-0.65856 -1.69068,-0.98876 -2.28271,-0.71411 -0.59267,0.27466 -0.60487,1.04981 -0.008,1.69556 0.59265,0.65307 1.64733,0.93811 2.32116,0.67139 0.68176,-0.26734 0.65612,-0.99426 -0.0305,-1.65284 z"
         fill="#94989a"
         id="path210"
         style="fill:#808080" />
      <path
         d="m 146.49109,511.59749 c -0.84168,-0.67626 -1.97815,-1.01989 -2.5708,-0.74279 -0.58715,0.27465 -0.48034,1.06261 0.27466,1.72668 0.755,0.66344 1.9397,0.96313 2.62146,0.69885 0.67872,-0.26917 0.51574,-1.01197 -0.32532,-1.68274 z"
         fill="#94989a"
         id="path212"
         style="fill:#808080" />
      <path
         d="m 150.73365,509.76949 c -0.99915,-0.68665 -2.26014,-1.04004 -2.85217,-0.76294 -0.59265,0.27466 -0.35584,1.073 0.56152,1.74926 0.91796,0.68117 2.2351,0.99426 2.91381,0.72938 0.67383,-0.27162 0.38148,-1.02418 -0.62316,-1.7157 z"
         fill="#94989a"
         id="path214"
         style="fill:#808080" />
      <path
         d="m 154.9823,507.94881 c -1.16211,-0.70435 -2.54516,-1.06995 -3.14026,-0.79528 -0.59204,0.27405 -0.22826,1.0852 0.84412,1.78161 1.07788,0.69457 2.53235,1.02234 3.21107,0.75561 0.68115,-0.26732 0.25146,-1.0376 -0.91493,-1.74194 z"
         fill="#94989a"
         id="path216"
         style="fill:#808080" />
      <path
         d="m 159.23035,506.12386 c -1.32202,-0.71961 -2.83204,-1.09864 -3.42469,-0.82397 -0.59203,0.2771 -0.10687,1.09862 1.12915,1.8103 1.23535,0.71411 2.8241,1.05712 3.50525,0.78796 0.67384,-0.2716 0.11225,-1.05225 -1.20971,-1.77429 z"
         fill="#94989a"
         id="path218"
         style="fill:#808080" />
      <path
         d="m 128.22449,514.4521 c -0.18066,-0.71716 -0.68664,-1.08825 -1.12915,-0.79834 -0.44983,0.28748 -0.72936,1.12366 -0.62256,1.83045 0.10437,0.70923 0.61523,1.02966 1.14136,0.74524 0.51636,-0.28259 0.79101,-1.06262 0.61035,-1.77735 z"
         fill="#94989a"
         id="path220"
         style="fill:#808080" />
      <path
         d="m 131.46851,512.54049 c -0.31311,-0.72693 -0.92285,-1.10351 -1.3733,-0.8136 -0.44738,0.28747 -0.62255,1.1261 -0.37841,1.84326 0.24109,0.7196 0.87219,1.04736 1.39588,0.76782 0.52367,-0.28198 0.68115,-1.07788 0.35583,-1.79748 z"
         fill="#94989a"
         id="path222"
         style="fill:#808080" />
      <path
         d="m 134.71985,510.62581 c -0.45776,-0.7373 -1.17431,-1.1206 -1.6217,-0.8313 -0.45044,0.28748 -0.5188,1.13648 -0.13245,1.86402 0.38148,0.72937 1.12366,1.06995 1.64734,0.78796 0.52369,-0.28503 0.56214,-1.08825 0.10675,-1.82068 z"
         fill="#94989a"
         id="path224"
         style="fill:#808080" />
      <path
         d="m 137.96388,508.71175 c -0.5951,-0.74462 -1.41603,-1.13404 -1.86585,-0.84656 -0.4425,0.28747 -0.4071,1.14136 0.11175,1.88111 0.51878,0.74279 1.38548,1.08825 1.90185,0.80628 0.52612,-0.27955 0.44495,-1.09375 -0.1477,-1.84083 z"
         fill="#94989a"
         id="path226"
         style="fill:#808080" />
      <path
         d="m 141.21278,506.80013 c -0.72938,-0.75562 -1.66017,-1.15723 -2.10755,-0.8673 -0.44983,0.28991 -0.30762,1.15172 0.34851,1.89941 0.66101,0.75256 1.64001,1.11084 2.16614,0.82885 0.51575,-0.28259 0.32287,-1.10595 -0.4071,-1.86096 z"
         fill="#94989a"
         id="path228"
         style="fill:#808080" />
      <path
         d="m 144.45679,504.8879 c -0.8667,-0.76721 -1.90124,-1.17188 -2.35169,-0.88196 -0.44982,0.28747 -0.2008,1.15661 0.59754,1.91406 0.79346,0.76294 1.89636,1.13159 2.4231,0.84961 0.51575,-0.28503 0.20569,-1.11633 -0.66895,-1.88171 z"
         fill="#94989a"
         id="path230"
         style="fill:#808080" />
      <path
         d="m 147.70874,502.97628 c -1.01196,-0.77515 -2.15331,-1.19202 -2.60375,-0.90027 -0.44739,0.28503 -0.086,1.1621 0.84411,1.93237 0.93566,0.77027 2.15088,1.15173 2.67456,0.8722 0.5188,-0.28504 0.0891,-1.1261 -0.91492,-1.9043 z"
         fill="#94989a"
         id="path232"
         style="fill:#808080" />
      <path
         d="m 150.95276,501.0616 c -1.14441,-0.78491 -2.39746,-1.20482 -2.83996,-0.91735 -0.44984,0.28748 0.0128,1.16942 1.08581,1.95251 1.07239,0.78308 2.40234,1.16943 2.92603,0.88989 0.52367,-0.28504 -0.0256,-1.13647 -1.17188,-1.92505 z"
         fill="#94989a"
         id="path234"
         style="fill:#808080" />
      <path
         d="m 127.11365,509.32454 c -0.14282,-0.81359 -0.51636,-1.26343 -0.84716,-0.97106 -0.32533,0.2948 -0.52613,1.21521 -0.44434,2.0282 0.0885,0.8142 0.48034,1.21337 0.8667,0.92285 0.38879,-0.28932 0.57434,-1.16639 0.4248,-1.97999 z"
         fill="#94989a"
         id="path236"
         style="fill:#808080" />
      <path
         d="m 129.5105,507.36959 c -0.26429,-0.82154 -0.72449,-1.27137 -1.05469,-0.97656 -0.32531,0.29236 -0.43762,1.21521 -0.23681,2.03429 0.19836,0.81299 0.69153,1.21461 1.08581,0.9253 0.38635,-0.29236 0.47303,-1.16943 0.20569,-1.98303 z"
         fill="#94989a"
         id="path238"
         style="fill:#808080" />
      <path
         d="m 131.90553,505.4067 c -0.38148,-0.82092 -0.93018,-1.26892 -1.26099,-0.97351 -0.32288,0.28991 -0.34851,1.21276 -0.0305,2.03369 0.318,0.81848 0.90515,1.22558 1.297,0.93567 0.39367,-0.29236 0.38086,-1.17492 -0.005,-1.99585 z"
         fill="#94989a"
         id="path240"
         style="fill:#808080" />
      <path
         d="m 134.30786,503.45174 c -0.50048,-0.82885 -1.14135,-1.27624 -1.474,-0.98389 -0.32348,0.29236 -0.26245,1.2201 0.17518,2.04162 0.42969,0.81849 1.12365,1.23048 1.51001,0.93812 0.39429,-0.28992 0.27954,-1.17188 -0.21119,-1.99585 z"
         fill="#94989a"
         id="path242"
         style="fill:#808080" />
      <path
         d="m 136.69556,501.49129 c -0.61035,-0.8258 -1.34033,-1.27808 -1.67053,-0.98633 -0.32532,0.29542 -0.16785,1.21827 0.37902,2.04163 0.54871,0.82641 1.34216,1.24329 1.72853,0.95092 0.39428,-0.28991 0.18066,-1.1798 -0.43702,-2.00622 z"
         fill="#94989a"
         id="path244"
         style="fill:#808080" />
      <path
         d="m 139.09241,499.53389 c -0.72937,-0.83129 -1.55335,-1.27868 -1.87866,-0.98633 -0.32287,0.29237 -0.0811,1.21522 0.58715,2.04163 0.66651,0.8313 1.55396,1.24817 1.9452,0.95825 0.38879,-0.28991 0.0762,-1.18469 -0.65369,-2.01355 z"
         fill="#94989a"
         id="path246"
         style="fill:#808080" />
      <path
         d="m 141.48743,497.57161 c -0.849,-0.8313 -1.75903,-1.2793 -2.08435,-0.98632 -0.33082,0.2893 0.008,1.21765 0.79285,2.04895 0.78063,0.8313 1.77185,1.25305 2.15881,0.96068 0.38635,-0.28991 -0.0184,-1.18712 -0.86731,-2.02331 z"
         fill="#94989a"
         id="path248"
         style="fill:#808080" />
      <path
         d="m 143.88245,495.61605 c -0.9613,-0.83619 -1.9574,-1.28601 -2.28821,-0.9961 -0.32531,0.29236 0.094,1.2201 0.99182,2.0514 0.90454,0.83679 1.99035,1.26343 2.38159,0.9735 0.38696,-0.2893 -0.11662,-1.19445 -1.0852,-2.0288 z"
         fill="#94989a"
         id="path250"
         style="fill:#808080" />
      <path
         d="m 126.26649,503.52804 c -0.10625,-0.91248 -0.36316,-1.4441 -0.59449,-1.15418 -0.21606,0.28687 -0.37354,1.28907 -0.31799,2.20642 0.0561,0.91553 0.3308,1.40076 0.60485,1.10596 0.2826,-0.28992 0.41199,-1.24329 0.30763,-2.1582 z"
         fill="#94989a"
         id="path252"
         style="fill:#808080" />
      <path
         d="m 127.94984,501.58284 c -0.19838,-0.90698 -0.53163,-1.42822 -0.75501,-1.13891 -0.23133,0.28747 -0.30518,1.2793 -0.15503,2.18933 0.14954,0.91003 0.51086,1.38794 0.78553,1.09802 0.27953,-0.28992 0.32531,-1.24023 0.1245,-2.14844 z"
         fill="#94989a"
         id="path254"
         style="fill:#808080" />
      <path
         d="m 129.63563,499.63826 c -0.29542,-0.89966 -0.69947,-1.41601 -0.9259,-1.1261 -0.2234,0.28443 -0.22889,1.2738 0.0127,2.17835 0.24413,0.90026 0.68665,1.37818 0.96862,1.08581 0.27466,-0.2948 0.23681,-1.2384 -0.0555,-2.13806 z"
         fill="#94989a"
         id="path256"
         style="fill:#808080" />
      <path
         d="m 131.31836,497.68819 c -0.39123,-0.88928 -0.8667,-1.39588 -1.0907,-1.10595 -0.22643,0.28747 -0.16296,1.26403 0.18067,2.16125 0.34302,0.89477 0.8667,1.37024 1.14136,1.07544 0.27954,-0.28992 0.16296,-1.2384 -0.23133,-2.13074 z"
         fill="#94989a"
         id="path258"
         style="fill:#808080" />
      <path
         d="m 133.00415,495.74361 c -0.48827,-0.88196 -1.0376,-1.38306 -1.26099,-1.09313 -0.224,0.28686 -0.0866,1.25548 0.3479,2.14843 0.43763,0.88684 1.05043,1.35986 1.32447,1.06506 0.28016,-0.28992 0.0739,-1.23596 -0.41138,-2.12036 z"
         fill="#94989a"
         id="path260"
         style="fill:#808080" />
      <path
         d="m 134.69421,493.79842 c -0.58715,-0.87952 -1.20482,-1.36718 -1.43615,-1.07788 -0.22338,0.28747 -0.0129,1.24877 0.52368,2.13074 0.53162,0.88196 1.21765,1.34948 1.4972,1.05773 0.27465,-0.28991 -0.005,-1.23046 -0.58473,-2.11059 z"
         fill="#94989a"
         id="path262"
         style="fill:#808080" />
      <path
         d="m 136.37269,491.85384 c -0.67384,-0.86975 -1.3678,-1.35498 -1.59669,-1.06568 -0.22644,0.28748 0.061,1.24085 0.68604,2.11549 0.62805,0.87708 1.40381,1.34276 1.67846,1.0498 0.27955,-0.2948 -0.0891,-1.22802 -0.76781,-2.09961 z"
         fill="#94989a"
         id="path264"
         style="fill:#808080" />
      <path
         d="m 138.06336,489.90926 c -0.78065,-0.86731 -1.54113,-1.33788 -1.76697,-1.05041 -0.22888,0.28747 0.13184,1.2329 0.849,2.10265 0.72449,0.86915 1.57837,1.32935 1.85852,1.03455 0.27405,-0.28991 -0.16785,-1.22254 -0.94055,-2.08679 z"
         fill="#94989a"
         id="path266"
         style="fill:#808080" />
      <path
         d="m 125.73548,497.08089 c -0.0506,-1.00708 -0.2008,-1.63208 -0.34302,-1.35743 -0.15015,0.27162 -0.26977,1.34218 -0.26185,2.36145 0.0125,1.02479 0.18799,1.59669 0.37354,1.31409 0.18799,-0.28441 0.28199,-1.3037 0.23133,-2.31811 z"
         fill="#94989a"
         id="path268"
         style="fill:#808080" />
      <path
         d="m 126.84631,495.22238 c -0.1245,-0.98939 -0.3302,-1.59424 -0.47546,-1.32203 -0.14954,0.27466 -0.21057,1.3269 -0.1245,2.32605 0.0891,1.00159 0.318,1.56373 0.51086,1.27869 0.1886,-0.27955 0.21363,-1.29151 0.0891,-2.28271 z"
         fill="#94989a"
         id="path270"
         style="fill:#808080" />
      <path
         d="m 127.95715,493.36385 c -0.2008,-0.97351 -0.46264,-1.55822 -0.60485,-1.28662 -0.15015,0.27466 -0.15747,1.30737 0.005,2.29065 0.16298,0.98145 0.46326,1.53076 0.65614,1.24817 0.18554,-0.28442 0.1477,-1.28114 -0.0561,-2.2522 z"
         fill="#94989a"
         id="path272"
         style="fill:#808080" />
      <path
         d="m 129.07349,491.50045 c -0.28198,-0.95094 -0.59265,-1.51551 -0.74219,-1.24329 -0.15015,0.26978 -0.0995,1.28661 0.13733,2.2522 0.23621,0.95887 0.60975,1.49535 0.79835,1.21582 0.18553,-0.28015 0.0811,-1.26648 -0.19349,-2.22473 z"
         fill="#94989a"
         id="path274"
         style="fill:#808080" />
      <path
         d="m 130.18433,489.64436 c -0.35583,-0.93505 -0.72449,-1.48192 -0.87463,-1.20971 -0.14221,0.27161 -0.0379,1.26831 0.26978,2.2113 0.31798,0.94605 0.74706,1.46973 0.94055,1.18714 0.18066,-0.28199 0.0178,-1.25549 -0.3357,-2.18873 z"
         fill="#94989a"
         id="path276"
         style="fill:#808080" />
      <path
         d="m 131.29273,487.7834 c -0.42969,-0.91491 -0.85388,-1.44104 -1.00403,-1.16942 -0.14221,0.26977 0.0201,1.25061 0.40649,2.17346 0.38696,0.9259 0.88501,1.43676 1.0785,1.15477 0.18005,-0.28258 -0.0489,-1.24633 -0.48096,-2.15881 z"
         fill="#94989a"
         id="path278"
         style="fill:#808080" />
      <path
         d="m 132.40418,485.92244 c -0.50598,-0.89478 -0.98694,-1.40319 -1.13403,-1.13098 -0.14527,0.2716 0.0739,1.23291 0.53649,2.13563 0.46021,0.90453 1.03455,1.40563 1.21521,1.12303 0.19288,-0.28197 -0.11225,-1.23046 -0.61767,-2.12768 z"
         fill="#94989a"
         id="path280"
         style="fill:#808080" />
      <path
         d="m 133.5199,484.06454 c -0.57984,-0.87769 -1.12121,-1.36842 -1.26587,-1.09375 -0.15014,0.26977 0.1245,1.21032 0.66101,2.09777 0.54382,0.88684 1.17432,1.37268 1.3678,1.09314 0.18005,-0.28504 -0.18066,-1.2207 -0.76294,-2.09716 z"
         fill="#94989a"
         id="path282"
         style="fill:#808080" />
      <path
         d="m 125.59815,490.00325 c 0.0127,-1.10351 -0.0305,-1.828 -0.11175,-1.58447 -0.0891,0.24415 -0.2063,1.3733 -0.24902,2.49695 -0.0457,1.11877 0.0305,1.78955 0.14953,1.5326 0.11225,-0.26124 0.19837,-1.33912 0.21119,-2.44508 z"
         fill="#94989a"
         id="path284"
         style="fill:#808080" />
      <path
         d="m 126.27198,488.31502 c -0.0434,-1.06812 -0.13245,-1.75903 -0.21119,-1.51551 -0.0891,0.2417 -0.16235,1.34218 -0.15746,2.42799 0.0201,1.08825 0.14465,1.73645 0.25695,1.47705 0.11662,-0.26184 0.14953,-1.31959 0.11175,-2.38952 z"
         fill="#94989a"
         id="path286"
         style="fill:#808080" />
      <path
         d="m 126.94031,486.63168 c -0.10137,-1.03455 -0.21851,-1.69312 -0.30762,-1.45387 -0.086,0.24414 -0.1245,1.31165 -0.0555,2.3645 0.0684,1.05469 0.24414,1.68274 0.36316,1.41847 0.11225,-0.25697 0.0995,-1.2915 0,-2.3291 z"
         fill="#94989a"
         id="path288"
         style="fill:#808080" />
      <path
         d="m 127.61414,484.94344 c -0.15748,-1.00098 -0.32044,-1.62659 -0.40649,-1.38794 -0.0866,0.24414 -0.0817,1.28174 0.0427,2.29859 0.12511,1.02416 0.35095,1.62718 0.46325,1.3678 0.11663,-0.26185 0.0555,-1.27381 -0.0995,-2.27845 z"
         fill="#94989a"
         id="path290"
         style="fill:#808080" />
      <path
         d="m 128.28004,483.2607 c -0.2057,-0.97108 -0.41139,-1.56616 -0.49805,-1.32446 -0.0891,0.24413 -0.0379,1.24816 0.14221,2.2345 0.18066,0.98937 0.45533,1.5686 0.56945,1.30676 0.11713,-0.26185 0,-1.24818 -0.21361,-2.2168 z"
         fill="#94989a"
         id="path292"
         style="fill:#808080" />
      <path
         d="m 128.95386,481.57553 c -0.26672,-0.93568 -0.51086,-1.50269 -0.59753,-1.26099 -0.0885,0.24414 0,1.22009 0.23681,2.17101 0.23621,0.95581 0.56152,1.51001 0.67871,1.24818 0.11175,-0.2594 -0.0482,-1.2207 -0.31799,-2.1582 z"
         fill="#94989a"
         id="path294"
         style="fill:#808080" />
      <path
         d="m 129.62769,479.88729 c -0.32288,-0.89721 -0.61035,-1.43433 -0.69885,-1.19019 -0.0866,0.23926 0.0457,1.1853 0.33814,2.10266 0.29235,0.92285 0.66588,1.45692 0.78551,1.19263 0.11175,-0.25695 -0.0995,-1.19995 -0.4248,-2.1051 z"
         fill="#94989a"
         id="path296"
         style="fill:#808080" />
      <path
         d="m 130.30151,478.20638 c -0.38146,-0.86914 -0.71166,-1.37512 -0.79833,-1.13587 -0.0811,0.24354 0.0811,1.15907 0.42968,2.04652 0.35095,0.88745 0.78064,1.39526 0.89234,1.13647 0.11963,-0.26245 -0.15015,-1.17981 -0.52369,-2.04712 z"
         fill="#94989a"
         id="path298"
         style="fill:#808080" />
    </g>
    <g
       fill="#aa0c31"
       id="g350"
       style="fill:#808080">
      <path
         d="m 290.46448,557.51851 v 5.78125 h 2.95166 c 1.21826,0 2.14416,-0.26062 2.77771,-0.78247 0.63355,-0.52124 0.95031,-1.21887 0.95031,-2.09289 0,-1.93726 -1.40258,-2.90589 -4.20776,-2.90589 z m 0,-6.64062 v 5.70312 h 1.53381 c 2.59705,0 3.89587,-0.94848 3.89587,-2.84667 0,-1.9043 -1.31225,-2.85645 -3.93676,-2.85645 z m -1.09375,-0.89844 h 2.96203 c 1.55397,0 2.73133,0.32715 3.53212,0.98023 0.80077,0.65307 1.20116,1.55456 1.20116,2.70446 0,1.37451 -0.68115,2.43286 -2.04345,3.17443 2.19544,0.47364 3.29345,1.67177 3.29345,3.59375 0,1.15052 -0.42969,2.06606 -1.28906,2.74598 -0.85938,0.67994 -2.02209,1.0199 -3.48938,1.0199 h -4.16687 z"
         id="path302"
         style="fill:#808080" />
      <path
         d="m 300.82215,558.37789 h 6.04798 c -0.35218,-1.82251 -1.33668,-2.73438 -2.95289,-2.73438 -0.76478,0 -1.42639,0.23927 -1.98425,0.71655 -0.55786,0.47792 -0.92835,1.15052 -1.11084,2.01783 z m 7.21985,0.82031 h -7.3523 c -0.0208,0.16235 -0.0305,0.32471 -0.0305,0.48706 0,1.04127 0.3717,1.92321 1.11633,2.64649 0.74402,0.72388 1.62353,1.0852 2.63916,1.0852 1.18409,0 2.3407,-0.46875 3.47107,-1.40625 v 1.13525 c -1.06812,0.83191 -2.26441,1.24756 -3.58887,1.24756 -1.34521,0 -2.45666,-0.46752 -3.33556,-1.40381 -0.87892,-0.93627 -1.31775,-2.12646 -1.31775,-3.57116 0,-1.37024 0.40526,-2.50489 1.21581,-3.40333 0.81055,-0.89843 1.82984,-1.34826 3.05909,-1.34826 1.15478,0 2.13073,0.4065 2.92785,1.21949 0.79712,0.81299 1.19568,1.91711 1.19568,3.31176 z"
         id="path304"
         style="fill:#808080" />
      <path
         d="m 316.5332,555.77596 c 0,0 -0.57982,0.92224 -0.57982,0.92224 -0.78125,-0.70312 -1.40992,-1.05469 -1.88478,-1.05469 -0.9375,0 -1.93847,0.89417 -3.00415,2.6825 v 5.87219 h -1.01562 v -9.33594 h 1.01562 v 2.46033 h 0.0402 c 1.12061,-1.77002 2.21436,-2.65564 3.27881,-2.65564 0.61158,0 1.32813,0.36988 2.14965,1.10901 z"
         id="path306"
         style="fill:#808080" />
      <path
         d="m 318.51929,554.86226 v 1.61499 h 0.0403 c 0.78002,-1.20666 1.80664,-1.8103 3.08227,-1.8103 1.05713,0 1.90185,0.33875 2.53174,1.01624 0.6311,0.67749 0.94726,1.6156 0.94726,2.81432 v 5.70069 h -1.01562 v -5.3241 c 0,-2.15331 -0.84473,-3.23059 -2.53418,-3.23059 -1.2378,0 -2.25586,0.66773 -3.05176,2.00318 v 6.55151 h -1.01562 v -9.33594 h 1.01562 z"
         id="path308"
         style="fill:#808080" />
      <path
         d="m 328.72925,549.97945 v 6.4978 h 0.0403 c 0.78003,-1.20666 1.80664,-1.8103 3.08228,-1.8103 1.05712,0 1.90185,0.33875 2.53173,1.01624 0.6311,0.67749 0.94727,1.60889 0.94727,2.79419 v 5.72082 h -1.01563 v -5.3241 c 0,-2.15331 -0.84472,-3.23059 -2.53417,-3.23059 -1.21094,0 -2.22902,0.66773 -3.05177,2.00318 v 6.55151 h -1.01562 v -14.21875 h 1.01562 z"
         id="path310"
         style="fill:#808080" />
      <path
         d="m 342.8064,562.36349 v -2.93091 c -1.27075,-0.047 -2.32422,0.17943 -3.1604,0.67871 -0.83619,0.49926 -1.25366,1.13647 -1.25366,1.91162 0,0.43579 0.17334,0.80262 0.52246,1.10168 0.34911,0.29907 0.78613,0.44861 1.31104,0.44861 0.84716,0 1.70654,-0.40284 2.58056,-1.20971 z m 2.57813,0.23315 v 0.82764 c -0.8667,0.64636 -1.50147,0.96923 -1.9043,0.96923 -0.23194,0 -0.39184,-0.0762 -0.48095,-0.22827 -0.0879,-0.15198 -0.15259,-0.46143 -0.19288,-0.92773 -0.98022,0.77086 -1.95312,1.156 -2.91749,1.156 -0.70312,0 -1.2976,-0.2301 -1.78343,-0.69091 -0.48707,-0.46021 -0.72877,-1.01929 -0.72877,-1.67664 0,-1.01562 0.46875,-1.81702 1.40748,-2.40296 0.93871,-0.58594 2.27905,-0.92285 4.02221,-1.01074 v -1.19872 c 0,-1.28419 -0.69092,-1.92628 -2.07031,-1.92628 -0.88013,0 -1.83105,0.40405 -2.85156,1.21094 v -1.03089 c 1.05712,-0.6665 2.06298,-1.00036 3.0188,-1.00036 0.84716,0 1.54418,0.20874 2.0935,0.62561 0.54932,0.41748 0.8252,1.02295 0.8252,1.8164 v 5.83009 c 0,0.3186 0.0733,0.4779 0.22461,0.4779 0.19042,0 0.63599,-0.27344 1.33789,-0.82031 z"
         id="path312"
         style="fill:#808080" />
      <path
         d="m 353.29468,555.77596 c 0,0 -0.58105,0.92224 -0.58105,0.92224 -0.78125,-0.70312 -1.40869,-1.05469 -1.88355,-1.05469 -0.93628,0 -1.93848,0.89417 -3.00415,2.6825 v 5.87219 h -1.01563 v -9.33594 h 1.01563 v 2.46033 h 0.0415 c 1.11938,-1.77002 2.21191,-2.65564 3.2788,-2.65564 0.61036,0 1.32691,0.36988 2.14843,1.10901 z"
         id="path314"
         style="fill:#808080" />
      <path
         d="m 360.77759,562.56306 v -6.04491 c -0.89111,-0.58289 -1.79565,-0.87464 -2.7124,-0.87464 -1.07421,0 -1.95801,0.35828 -2.65136,1.07361 -0.6958,0.71533 -1.04249,1.62964 -1.04249,2.7417 0,1.13282 0.3711,2.0758 1.11329,2.82898 0.74218,0.75317 1.66991,1.12915 2.7832,1.12915 0.86181,0 1.69921,-0.28443 2.50976,-0.85389 z m 1.01562,-12.58361 v 14.21875 h -1.01562 v -0.72021 c -0.85205,0.61035 -1.7688,0.91552 -2.7539,0.91552 -1.32325,0 -2.43896,-0.46936 -3.34595,-1.40869 -0.9082,-0.93933 -1.36109,-2.09412 -1.36109,-3.46497 0,-1.39037 0.44678,-2.54639 1.34034,-3.46924 0.89355,-0.92224 2.0166,-1.38366 3.3667,-1.38366 0.85692,0 1.7749,0.25146 2.7539,0.75317 v -5.44067 z"
         id="path316"
         style="fill:#808080" />
      <path
         d="m 371.59363,550.87789 v 5.58594 h 2.37305 c 1.20606,0 2.12891,-0.24293 2.76611,-0.72998 0.63721,-0.48706 0.95459,-1.17615 0.95459,-2.06787 0,-0.8783 -0.32227,-1.5625 -0.97168,-2.05262 -0.64697,-0.49011 -1.57715,-0.73547 -2.79052,-0.73547 z m -1.09375,-0.89844 h 3.64502 c 1.52833,0 2.69531,0.33081 3.50341,0.99121 0.80812,0.6604 1.21094,1.55274 1.21094,2.677 0,1.6394 -0.90575,2.79114 -2.71972,3.4552 0.46875,0.224 1.09863,0.94665 1.8921,2.16736 0,0 3.21043,4.92798 3.21043,4.92798 h -1.27196 c 0,0 -2.49756,-3.90686 -2.49756,-3.90686 -0.82764,-1.30615 -1.47216,-2.12037 -1.9336,-2.44385 -0.46143,-0.32349 -1.13525,-0.48523 -2.02148,-0.48523 h -1.92383 v 6.83594 h -1.09375 z"
         id="path318"
         style="fill:#808080" />
      <path
         d="m 383.25868,554.86226 v 9.33594 h -1.01563 v -9.33594 z m 0,-4.88281 v 1.71875 h -1.01563 v -1.71875 z"
         id="path320"
         style="fill:#808080" />
      <path
         d="m 386.75233,558.37789 h 6.04736 c -0.35156,-1.82251 -1.33545,-2.73438 -2.95166,-2.73438 -0.7666,0 -1.42823,0.23927 -1.98487,0.71655 -0.55908,0.47792 -0.92773,1.15052 -1.11083,2.01783 z m 7.21923,0.82031 h -7.35107 c -0.022,0.16235 -0.0318,0.32471 -0.0318,0.48706 0,1.04127 0.37109,1.92321 1.11572,2.64649 0.74463,0.72388 1.62353,1.0852 2.63915,1.0852 1.18409,0 2.34132,-0.46875 3.47169,-1.40625 v 1.13525 c -1.0669,0.83191 -2.26319,1.24756 -3.58887,1.24756 -1.34522,0 -2.45605,-0.46752 -3.33495,-1.40381 -0.87892,-0.93627 -1.31837,-2.12646 -1.31837,-3.57116 0,-1.37024 0.40528,-2.50489 1.21582,-3.40333 0.81055,-0.89843 1.83106,-1.34826 3.05908,-1.34826 1.15479,0 2.13135,0.4065 2.92725,1.21949 0.79834,0.81299 1.19629,1.91711 1.19629,3.31176 z"
         id="path322"
         style="fill:#808080" />
      <path
         d="m 396.99403,554.86226 v 1.63574 h 0.0415 c 0.7544,-1.2207 1.7456,-1.83105 2.96631,-1.83105 1.42577,0 2.42675,0.74951 3.00781,2.24731 0.8789,-1.4978 1.96289,-2.24731 3.24706,-2.24731 0.9668,0 1.74805,0.34546 2.34375,1.03638 0.59572,0.69092 0.89357,1.60888 0.89357,2.75391 v 5.74096 h -1.01563 v -5.30335 c 0,-1.00951 -0.2124,-1.80359 -0.63721,-2.38281 -0.4248,-0.57862 -1.0205,-0.86853 -1.78711,-0.86853 -0.57373,0 -1.07178,0.17334 -1.49658,0.5188 -0.42481,0.34546 -0.86181,0.90149 -1.31347,1.66748 v 6.36841 h -1.01563 v -5.3241 c 0,-1.03576 -0.21972,-1.83289 -0.66162,-2.39196 -0.4419,-0.55909 -1.03272,-0.83863 -1.77247,-0.83863 -1.0791,0 -2.01171,0.66773 -2.80028,2.00318 v 6.55151 h -1.01563 v -9.33594 z"
         id="path324"
         style="fill:#808080" />
      <path
         d="m 416.91834,562.36349 v -2.93091 c -1.26953,-0.047 -2.32421,0.17943 -3.15918,0.67871 -0.83741,0.49926 -1.25488,1.13647 -1.25488,1.91162 0,0.43579 0.17578,0.80262 0.5249,1.10168 0.34912,0.29907 0.78613,0.44861 1.3086,0.44861 0.84716,0 1.70653,-0.40284 2.58056,-1.20971 z m 2.57812,0.23315 v 0.82764 c -0.8667,0.64636 -1.50146,0.96923 -1.90185,0.96923 -0.23193,0 -0.39307,-0.0762 -0.48096,-0.22827 -0.0904,-0.15198 -0.15381,-0.46143 -0.19531,-0.92773 -0.979,0.77086 -1.95069,1.156 -2.91748,1.156 -0.70312,0 -1.29638,-0.2301 -1.78223,-0.69091 -0.48584,-0.46021 -0.72998,-1.01929 -0.72998,-1.67664 0,-1.01562 0.46875,-1.81702 1.40869,-2.40296 0.9375,-0.58594 2.27784,-0.92285 4.021,-1.01074 v -1.19872 c 0,-1.28419 -0.69091,-1.92628 -2.07031,-1.92628 -0.8789,0 -1.82862,0.40405 -2.85157,1.21094 v -1.03089 c 1.05713,-0.6665 2.06299,-1.00036 3.02003,-1.00036 0.84716,0 1.5454,0.20874 2.09472,0.62561 0.54932,0.41748 0.82275,1.02295 0.82275,1.8164 v 5.83009 c 0,0.3186 0.0756,0.4779 0.22462,0.4779 0.19042,0 0.6372,-0.27344 1.33788,-0.82031 z"
         id="path326"
         style="fill:#808080" />
      <path
         d="m 421.94031,554.86226 v 1.61499 h 0.039 c 0.78125,-1.20666 1.80664,-1.8103 3.0835,-1.8103 1.05713,0 1.90185,0.33875 2.53174,1.01624 0.62988,0.67749 0.94726,1.6156 0.94726,2.81432 v 5.70069 h -1.01562 v -5.3241 c 0,-2.15331 -0.84473,-3.23059 -2.53419,-3.23059 -1.23779,0 -2.25585,0.66773 -3.05175,2.00318 v 6.55151 h -1.01562 v -9.33594 h 1.01562 z"
         id="path328"
         style="fill:#808080" />
      <path
         d="m 432.15028,554.86226 v 1.61499 h 0.039 c 0.78125,-1.20666 1.80663,-1.8103 3.08348,-1.8103 1.05714,0 1.90187,0.33875 2.53174,1.01624 0.62989,0.67749 0.94728,1.6156 0.94728,2.81432 v 5.70069 h -1.01563 v -5.3241 c 0,-2.15331 -0.84472,-3.23059 -2.53419,-3.23059 -1.23778,0 -2.25585,0.66773 -3.05175,2.00318 v 6.55151 h -1.01562 v -9.33594 h 1.01562 z"
         id="path330"
         style="fill:#808080" />
      <path
         d="m 301.24573,571.82149 v 1.25 c -1.67847,-0.96314 -3.35388,-1.44531 -5.02503,-1.44531 -1.79381,0 -3.28612,0.59876 -4.47754,1.79566 -1.1914,1.1969 -1.7865,2.69652 -1.7865,4.49829 0,1.80236 0.589,3.30017 1.76819,4.49401 1.1792,1.19385 2.78138,1.79016 4.80775,1.79016 1.46361,0 2.76123,-0.29235 3.89281,-0.87769 v -3.84887 h -3.00781 v -0.89844 h 4.10156 v 5.4419 c -1.66991,0.79956 -3.34593,1.19873 -5.02868,1.19873 -2.19727,0 -4.03075,-0.70008 -5.50049,-2.10022 -1.47034,-1.40015 -2.2052,-3.14636 -2.2052,-5.23987 0,-2.08008 0.72144,-3.81164 2.16431,-5.1947 1.44288,-1.38305 3.25623,-2.07459 5.44006,-2.07459 1.48682,0 3.10608,0.40405 4.85657,1.21094 z"
         id="path332"
         style="fill:#808080" />
      <path
         d="m 311.4978,575.68868 c 0,0 -6.98607,14.14062 -6.98607,14.14062 h -1.02113 c 0,0 3.25868,-6.59485 3.25868,-6.59485 0,0 -3.92274,-7.54577 -3.92274,-7.54577 h 1.02174 c 0,0 3.39903,6.53747 3.39903,6.53747 0,0 3.22999,-6.53747 3.22999,-6.53747 z"
         id="path334"
         style="fill:#808080" />
      <path
         d="m 313.69874,575.68868 v 1.63575 h 0.0403 c 0.75684,-1.22072 1.74561,-1.83107 2.96875,-1.83107 1.42334,0 2.42676,0.74952 3.00781,2.24731 0.87891,-1.49779 1.96045,-2.24731 3.24708,-2.24731 0.9668,0 1.74805,0.34547 2.34375,1.03638 0.59448,0.69092 0.89233,1.60889 0.89233,2.75391 v 5.74096 h -1.01562 v -5.30334 c 0,-1.00952 -0.21241,-1.80358 -0.63599,-2.38281 -0.42481,-0.57861 -1.02051,-0.86854 -1.78955,-0.86854 -0.57251,0 -1.07179,0.17334 -1.49536,0.5188 -0.42481,0.34547 -0.86304,0.90149 -1.31348,1.66749 v 6.3684 h -1.01562 v -5.32409 c 0,-1.03577 -0.22095,-1.83288 -0.66285,-2.39197 -0.44068,-0.55908 -1.03149,-0.83863 -1.77246,-0.83863 -1.07788,0 -2.01172,0.66773 -2.79907,2.00318 v 6.55151 h -1.01562 v -9.33594 h 1.01562 z"
         id="path336"
         style="fill:#808080" />
      <path
         d="m 329.75586,575.68868 v 1.61498 h 0.0403 c 0.78003,-1.20666 1.80664,-1.8103 3.08228,-1.8103 1.05835,0 1.90185,0.33875 2.53295,1.01624 0.62989,0.67749 0.94605,1.6156 0.94605,2.81434 v 5.70067 h -1.01563 v -5.32408 c 0,-2.15333 -0.84472,-3.2306 -2.53417,-3.2306 -1.23658,0 -2.25465,0.66772 -3.05176,2.00317 v 6.55151 h -1.01563 v -9.33593 h 1.01563 z"
         id="path338"
         style="fill:#808080" />
      <path
         d="m 343.83179,583.1899 v -2.93091 c -1.26953,-0.047 -2.323,0.17945 -3.15918,0.67871 -0.83618,0.49928 -1.25488,1.13647 -1.25488,1.91163 0,0.43578 0.17578,0.80261 0.5249,1.10168 0.34912,0.29907 0.78613,0.4486 1.30982,0.4486 0.84594,0 1.70654,-0.40282 2.57934,-1.20971 z m 2.57812,0.23315 v 0.82764 c -0.8667,0.64636 -1.50023,0.96923 -1.90185,0.96923 -0.23193,0 -0.39307,-0.0762 -0.48096,-0.22826 -0.0891,-0.15199 -0.15381,-0.46144 -0.19531,-0.92774 -0.979,0.77088 -1.95069,1.156 -2.91748,1.156 -0.70191,0 -1.29638,-0.2301 -1.78222,-0.69091 -0.48585,-0.46021 -0.72999,-1.01929 -0.72999,-1.67664 0,-1.01562 0.46998,-1.81701 1.40869,-2.40295 0.93872,-0.58593 2.27906,-0.92285 4.021,-1.01075 v -1.19872 c 0,-1.28419 -0.6897,-1.92628 -2.07031,-1.92628 -0.8789,0 -1.82862,0.40405 -2.85157,1.21094 v -1.03087 c 1.05713,-0.66652 2.06422,-1.00038 3.02003,-1.00038 0.84716,0 1.54541,0.20874 2.09472,0.62561 0.54932,0.41749 0.82275,1.02295 0.82275,1.81642 v 5.83007 c 0,0.3186 0.0757,0.4779 0.22462,0.4779 0.19042,0 0.6372,-0.27344 1.33788,-0.82031 z"
         id="path340"
         style="fill:#808080" />
      <path
         d="m 352.99439,576.27461 v 1.09375 c -0.95948,-0.65063 -1.82129,-0.97656 -2.58789,-0.97656 -0.56885,0 -1.04736,0.15198 -1.43799,0.45532 -0.38941,0.30336 -0.5835,0.67749 -0.5835,1.12183 0,0.31678 0.12325,0.60853 0.37232,0.87464 0.24902,0.26611 0.90453,0.60851 1.969,1.02722 1.06445,0.4187 1.76025,0.849 2.0874,1.28967 0.32836,0.44067 0.49316,0.93262 0.49316,1.47522 0,0.72571 -0.29785,1.33789 -0.89355,1.83655 -0.59571,0.49865 -1.33301,0.74768 -2.20948,0.74768 -0.95215,0 -1.89697,-0.28625 -2.83447,-0.85938 v -0.97656 c 1.11572,0.57312 2.10449,0.85937 2.96752,0.85937 0.58228,0 1.05958,-0.15259 1.43312,-0.45776 0.37231,-0.30518 0.5603,-0.69519 0.5603,-1.17004 0,-0.32594 -0.12213,-0.62622 -0.36255,-0.90088 -0.2417,-0.27466 -0.89722,-0.62196 -1.96533,-1.04248 -1.06812,-0.42054 -1.76147,-0.83619 -2.07886,-1.24634 -0.31739,-0.41016 -0.47608,-0.8667 -0.47608,-1.36841 0,-0.71228 0.29297,-1.31775 0.88257,-1.8164 0.5896,-0.49805 1.30616,-0.74769 2.15088,-0.74769 0.76904,0 1.60767,0.26063 2.51343,0.78125 z"
         id="path342"
         style="fill:#808080" />
      <path
         d="m 356.38306,575.68868 v 9.33593 h -1.01562 v -9.33593 z m 0,-4.88282 v 1.71875 h -1.01562 v -1.71875 z"
         id="path344"
         style="fill:#808080" />
      <path
         d="m 365.72694,585.02461 v -1.53381 h -0.0415 c -0.43213,0.62379 -0.8789,1.06811 -1.33545,1.3324 -0.45898,0.26429 -1.04065,0.39673 -1.74621,0.39673 -1.00342,0 -1.8335,-0.3247 -2.49268,-0.97534 -0.65674,-0.65003 -0.98632,-1.57165 -0.98632,-2.76429 v -5.79162 h 1.01562 v 5.77087 c 0,0.86731 0.23681,1.54785 0.71045,2.04224 0.47241,0.49438 1.08764,0.74157 1.8457,0.74157 0.64698,0 1.19934,-0.14892 1.65589,-0.44739 0.45654,-0.29784 0.91552,-0.81298 1.37451,-1.54541 v -6.56189 h 1.01563 v 9.33594 h -1.01563 z"
         id="path346"
         style="fill:#808080" />
      <path
         d="m 370.35095,575.68868 v 1.63575 h 0.0415 c 0.75439,-1.22072 1.7456,-1.83107 2.9663,-1.83107 1.42579,0 2.42676,0.74952 3.00781,2.24731 0.87892,-1.49779 1.9629,-2.24731 3.24708,-2.24731 0.9668,0 1.74805,0.34547 2.34375,1.03638 0.5957,0.69092 0.89355,1.60889 0.89355,2.75391 v 5.74096 h -1.01563 v -5.30334 c 0,-1.00952 -0.2124,-1.80358 -0.6372,-2.38281 -0.42481,-0.57861 -1.02051,-0.86854 -1.78711,-0.86854 -0.57372,0 -1.07177,0.17334 -1.49657,0.5188 -0.42482,0.34547 -0.86183,0.90149 -1.31349,1.66749 v 6.3684 h -1.01563 v -5.32409 c 0,-1.03577 -0.21972,-1.83288 -0.66161,-2.39197 -0.4419,-0.55908 -1.03271,-0.83863 -1.77246,-0.83863 -1.0791,0 -2.01173,0.66773 -2.8003,2.00318 v 6.55151 h -1.01563 v -9.33594 h 1.01563 z"
         id="path348"
         style="fill:#808080" />
    </g>
  </g>
</svg>
