<?xml version="1.0" encoding="UTF-8" standalone="no"?>
<svg
   version="1.0"
   width="1280pt"
   height="1012.0001pt"
   viewBox="0 0 1280 1012"
   preserveAspectRatio="xMidYMid"
   id="svg719"
   xmlns="http://www.w3.org/2000/svg"
   xmlns:svg="http://www.w3.org/2000/svg">
  <defs
     id="defs723" />
  <metadata
     id="metadata709">
Created by potrace 1.15, written by Peter Selinger 2001-2017
</metadata>
  <g
     transform="matrix(0.1,0,0,-0.1,0,1012)"
     fill="#000000"
     stroke="none"
     id="g717">
    <path
       d="m 1515,10110 c -209,-4 -550,-8 -757,-9 l -378,-1 v -382 -381 l 778,9 c 427,5 903,9 1057,9 h 280 l 180,-360 c 173,-346 224,-451 451,-944 l 104,-224 V 5369 2910 l 4012,2 4012,3 59,180 c 32,99 85,263 118,365 33,102 91,280 129,395 37,116 95,293 128,395 33,102 119,366 191,588 132,404 282,868 523,1607 71,220 189,580 261,800 l 132,400 3,289 3,289 -1498,-7 c -1386,-6 -3091,-15 -6174,-32 l -1225,-7 -21,49 c -62,149 -356,766 -544,1144 -175,350 -228,448 -273,502 -98,117 -211,186 -366,224 -64,15 -128,18 -440,19 -201,1 -536,-1 -745,-5 z"
       id="path711" />
    <path
       d="m 5115,2419 c -165,-12 -315,-56 -471,-138 -343,-180 -580,-519 -635,-909 -14,-104 -6,-310 16,-412 110,-496 509,-870 1008,-944 618,-92 1194,292 1353,901 35,133 44,365 20,498 -46,250 -152,458 -324,636 -254,265 -595,394 -967,368 z m 247,-624 c 203,-50 379,-226 432,-431 19,-72 21,-210 5,-286 -66,-313 -397,-524 -712,-454 -182,41 -341,166 -416,327 -46,99 -61,164 -61,263 0,159 65,313 179,426 152,150 361,206 573,155 z"
       id="path713" />
    <path
       d="m 9240,2419 c -378,-26 -724,-235 -935,-565 -225,-352 -244,-817 -49,-1195 331,-642 1151,-855 1748,-455 256,172 442,441 511,740 66,286 16,618 -131,871 -240,410 -667,636 -1144,604 z m 265,-631 c 186,-53 341,-205 401,-393 32,-100 36,-246 9,-340 -107,-372 -511,-550 -858,-378 -91,46 -208,160 -255,250 -41,78 -72,198 -72,278 0,409 382,697 775,583 z"
       id="path715" />
  </g>
  <path
     style="fill:#ffffff;stroke-width:2.12605"
     d="M 323.15966,473.34563 V 227.02319 l -7.61066,-16.7763 c -4.18586,-9.22696 -20.68932,-43.47462 -36.67437,-76.1059 L 249.81092,74.811396 144.03991,76.15113 38.268907,77.490862 V 40.592119 3.6933778 L 141.91387,2.0695865 c 67.08122,-1.0509521 108.98028,-0.8686357 118.76863,0.5168012 18.69842,2.6465561 33.09899,9.6363983 42.81619,20.7823803 6.73555,7.725912 54.74735,102.180552 76.73756,150.967362 l 8.62469,19.13445 284.46237,-0.43522 c 156.45434,-0.23938 356.99069,-1.03724 445.63639,-1.77302 l 161.174,-1.33777 -1.3804,29.41165 -1.3804,29.41168 -65.8886,203.03781 c -36.2387,111.6708 -70.6492,217.62784 -76.4679,235.46009 l -10.5794,32.42226 H 723.79834 323.15966 Z"
     id="path779" />
  <path
     style="fill:#ffffff;stroke-width:2.12605"
     d="m 496.43277,1007.9212 c -44.71329,-10.38385 -80.11175,-44.2684 -91.3598,-87.45258 -4.24795,-16.30897 -4.17738,-45.92197 0.14448,-60.62685 21.67983,-73.7646 101.72305,-109.71817 169.14119,-75.97432 31.48963,15.7611 56.32969,47.25705 63.53455,80.55862 3.73396,17.2587 1.71855,50.99055 -3.99017,66.78398 -9.36973,25.9218 -33.08623,53.35005 -56.4261,65.2572 -24.8959,12.70095 -56.4634,17.16235 -81.04415,11.45395 z m 51.27283,-62.4541 c 13.26684,-6.80115 20.58027,-13.81965 27.41139,-26.30595 13.02519,-23.80815 6.3678,-57.80333 -14.70072,-75.06735 -31.07379,-25.46265 -77.2362,-15.09645 -94.85579,21.30075 -6.79002,14.02635 -6.88259,36.3324 -0.20823,50.17485 7.61603,15.79537 22.14048,28.61123 38.50793,33.97808 9.46407,3.1032 34.35042,0.7872 43.84542,-4.08038 z"
     id="path781" />
  <path
     style="fill:#ffffff;stroke-width:2.12605"
     d="m 907.82355,1007.7487 c -41.76795,-9.47523 -74.37743,-39.31983 -88.30913,-80.82168 -5.10705,-15.21367 -5.57692,-19.18717 -4.76707,-40.31385 1.07392,-28.01587 5.54437,-42.15142 20.06692,-63.45217 47.28795,-69.35903 150.99248,-69.0981 197.25863,0.4962 13.9706,21.01477 18.4655,35.12122 19.7573,62.00602 1.2494,25.99823 -1.591,38.87985 -13.6525,61.917 -8.3765,15.999 -28.1916,37.2333 -42.65328,45.70845 -26.058,15.27093 -59.6853,20.81543 -87.70087,14.46003 z m 55.04497,-63.86103 c 20.42123,-11.11462 30.76148,-29.09505 30.71513,-53.40975 -0.0473,-25.01145 -10.75335,-42.45607 -33.42428,-54.46357 -13.17495,-6.97808 -41.01442,-6.71063 -55.19047,0.53025 -40.1544,20.51003 -43.8993,77.41073 -6.83063,103.78553 18.30585,13.02472 44.67323,14.47387 64.73025,3.55754 z"
     id="path783" />
</svg>
