<?xml version="1.0" encoding="UTF-8" standalone="no"?>
<svg
   width="490"
   height="490"
   version="1.1"
   id="svg975"
   xmlns="http://www.w3.org/2000/svg"
   xmlns:svg="http://www.w3.org/2000/svg">
  <defs
     id="defs979" />
  <path
     fill="none"
     stroke="#000000"
     stroke-width="36"
     stroke-linecap="round"
     d="m 280,278 a 153,153 0 1 0 -2,2 L 448,450 M 357,333 467,443 441,469 331,359"
     id="path973" />
  <path
     style="fill:#ffffff;stroke-width:1.02941"
     d="m 378.67037,431.06645 c -34.33473,-34.39537 -62.93821,-63.54887 -63.56329,-64.78554 -2.00782,-3.97237 -1.36459,-11.59316 1.37276,-16.2641 l 2.50926,-4.28172 -20.86647,-20.84785 -20.86647,-20.84784 -8.66484,6.27107 c -10.70857,7.75021 -32.14823,18.42958 -45.3329,22.58093 -36.65446,11.54107 -73.02153,10.99913 -109.42153,-1.63059 C 69.128732,315.74841 31.37238,279.86793 13.31721,235.73529 -5.1848761,190.51026 -3.6899905,140.18308 17.445101,96.764706 40.889081,48.603119 84.347355,14.946899 137.94118,3.4466298 147.25768,1.4474752 151.8057,1.127251 170.88235,1.127251 c 19.11695,0 23.60499,0.3173134 32.94118,2.3290073 70.62659,15.2181087 122.73179,68.8831927 134.96297,139.0034017 2.88458,16.53698 2.85763,40.3463 -0.0648,57.17487 -4.68132,26.95771 -17.14129,54.94667 -34.30085,77.05033 l -2.22132,2.86133 20.62712,20.62711 20.62711,20.62712 4.97052,-2.64286 c 5.57226,-2.9628 10.33879,-3.33815 15.24842,-1.20076 1.89861,0.82655 29.89463,28.06911 65.58904,63.82383 l 62.27652,62.38172 -25.22058,25.22058 -25.22057,25.22058 -62.42681,-62.53706 z M 191.20902,304.64465 c 57.14343,-8.48499 102.8865,-53.17025 113.0386,-110.42456 2.0999,-11.84272 2.07603,-35.0589 -0.0483,-47.01421 C 299.11284,118.58074 285.17376,92.804472 263.79872,72.496814 245.19949,54.826366 223.76062,43.642408 197.60538,37.965925 185.33834,35.303606 156.41417,35.269828 144.11765,37.903461 116.61185,43.794574 95.479223,55.25587 75.551566,75.090332 63.717239,86.869315 56.510666,96.557256 50.072171,109.3428 26.707897,155.7395 31.651705,211.44634 62.774869,252.47682 c 29.94754,39.48064 79.185981,59.48048 128.434151,52.16783 z"
     id="path981" />
</svg>
